<?xml version="1.0" encoding="utf-8"?>
<!-- Generator: Adobe Illustrator 27.1.1, SVG Export Plug-In . SVG Version: 6.00 Build 0)  -->
<svg version="1.1" id="Layer_1" xmlns="http://www.w3.org/2000/svg" xmlns:xlink="http://www.w3.org/1999/xlink" x="0px" y="0px"
	 viewBox="0 0 489 455" style="enable-background:new 0 0 489 455;" xml:space="preserve">
<style type="text/css">
	.st0{fill:#FFFFFF;}
	.st1{fill:#9180EE;}
	.st2{fill:#F9F1B3;}
	.st3{opacity:0.4;fill:#F9F1B3;enable-background:new    ;}
	.st4{fill:#F9F1B3;stroke:#F9F1B3;stroke-miterlimit:10;}
</style>
<path class="st0" d="M433.9,449.9H55.2c-27.6,0-50-22.4-50-50V54.4c0-27.6,22.4-50,50-50H434c27.6,0,50,22.4,50,50v345.5
	C483.9,427.5,461.6,449.9,433.9,449.9z"/>
<g>
	<path class="st1" d="M281.4,396.5l-180.1-86.9c-25.7-12.4-36.5-43.3-24.1-69L126.7,138c12.4-25.7,43.3-36.5,69-24.1l180.1,86.9
		c25.7,12.4,36.5,43.3,24.1,69l-49.5,102.6C338,398.1,307.1,408.9,281.4,396.5z"/>
	<circle class="st2" cx="236.8" cy="258.1" r="70.3"/>
	<circle class="st1" cx="236" cy="257.7" r="60.1"/>
	
		<rect x="345" y="195.8" transform="matrix(0.4345 -0.9007 0.9007 0.4345 2.4694 450.9518)" class="st2" width="30.7" height="55.5"/>
	<path class="st3" d="M325.4,236"/>
	<path class="st3" d="M375.4,260.1"/>
	<path class="st1" d="M218.7,130.6l-28.4-13.7c-5.7-2.8-8.1-9.7-5.4-15.4l0,0c2.8-5.7,9.7-8.1,15.4-5.4l28.4,13.7
		c5.7,2.8,8.1,9.7,5.4,15.4l0,0C231.3,131,224.4,133.4,218.7,130.6z"/>
	<path class="st1" d="M329.2,190.6l-79.7-38.4c-2.1-1-3.1-3.6-2-5.8l9.5-19.6c5-10.4,17.6-14.8,27.9-9.8l49.8,24
		c10.4,5,14.8,17.6,9.8,27.9l-9.5,19.6C334,190.7,331.4,191.6,329.2,190.6z"/>
	<circle class="st4" cx="236.1" cy="257.7" r="60.1"/>
	<g>
		<path class="st1" d="M236.8,230.8L236.8,230.8c-1.4-4.1-6-6.3-10.1-4.9l-3.1,1.1l-0.9-2.2c-1.8-4.7-7.1-7-11.8-5.1l0,0
			c-4.4,1.7-6.5,6.7-4.8,11l6.8,17.4l0.4,1.1l17.5-6.1C235.9,241.3,238.6,235.8,236.8,230.8z"/>
		<path class="st1" d="M279.2,250.9L279.2,250.9c-1.4-4.1-6-6.3-10.1-4.9l-3.1,1.1l-0.9-2.2c-1.8-4.7-7.1-7-11.8-5.1l0,0
			c-4.4,1.7-6.5,6.7-4.8,11l6.8,17.4l0.4,1.1l17.5-6.1C278.3,261.5,281,256,279.2,250.9z"/>
		<path class="st1" d="M213.8,294.9c15.6,9.3,35.2,5.8,46.7-7.4l-64.2-31.1C193.6,271.2,200.1,286.8,213.8,294.9z"/>
	</g>
	<path class="st2" d="M152.3,73.8c2.1,4.9-4.4,8.8-7.7,4.7l0,0l-16.8-20.2c-1.8-2.2-1.2-5.4,1.1-6.8l3.2-2l3.2-2
		c2.4-1.5,5.5-0.5,6.6,2.1L152.3,73.8L152.3,73.8z"/>
	<path class="st2" d="M194.6,59.3c0.7,5.2-6.5,7.4-8.7,2.5l0,0L175,38c-1.2-2.5,0.2-5.5,2.9-6.3l3.6-1.1l3.6-1.1
		c2.7-0.8,5.4,1,5.8,3.8L194.6,59.3L194.6,59.3z"/>
	<path class="st2" d="M414.4,202.6c-5.2,1-7.7-6.1-3-8.6l0,0l23.2-12.2c2.5-1.3,5.5-0.1,6.5,2.5l1.3,3.6l1.3,3.6
		c0.9,2.6-0.7,5.5-3.4,6L414.4,202.6L414.4,202.6z"/>
	<path class="st2" d="M430,241.4c-5.3-0.4-5.8-7.9-0.6-9.1l0,0l25.6-5.5c2.7-0.6,5.4,1.4,5.5,4.2l0.2,3.8l0.2,3.8
		c0.2,2.8-2.1,5.1-4.9,4.9L430,241.4L430,241.4z"/>
</g>
</svg>
