<?xml version="1.0" encoding="utf-8"?>
<!-- Generator: Adobe Illustrator 27.1.1, SVG Export Plug-In . SVG Version: 6.00 Build 0)  -->
<svg version="1.1" id="Layer_1" xmlns="http://www.w3.org/2000/svg" xmlns:xlink="http://www.w3.org/1999/xlink" x="0px" y="0px"
	 viewBox="0 0 489 455" style="enable-background:new 0 0 489 455;" xml:space="preserve">
<style type="text/css">
	.st0{opacity:0.6;fill:#FFFFFF;}
	.st1{fill:#47021E;}
	.st2{fill:#001E36;}
	.st3{fill:#330000;}
	.st4{fill:#F73163;}
	.st5{fill:#31A8FF;}
	.st6{fill:#FF9A00;}
	.st7{fill:#F9F1B3;}
</style>
<path class="st0" d="M433.8,449.9H55.1c-27.6,0-50-22.4-50-50V54.4c0-27.6,22.4-50,50-50h378.8c27.6,0,50,22.4,50,50v345.5
	C483.8,427.5,461.5,449.9,433.8,449.9z"/>
<g>
	<g>
		<path class="st1" d="M152.8,338.3l-69,14.9c-12.5,2.7-24.9-5.3-27.6-17.8l-14.9-69c-2.7-12.5,5.3-24.9,17.8-27.6l69-14.9
			c12.5-2.7,24.9,5.3,27.6,17.8l14.9,69C173.3,323.3,165.3,335.6,152.8,338.3z"/>
	</g>
	<g>
		<path class="st2" d="M280.3,273.1h-70.6c-12.8,0-23.2-10.4-23.2-23.2v-70.6c0-12.8,10.4-23.2,23.2-23.2h70.6
			c12.8,0,23.2,10.4,23.2,23.2v70.6C303.5,262.7,293.1,273.1,280.3,273.1z"/>
	</g>
	<g>
		<path class="st3" d="M406.8,357.2l-69.6-12c-12.6-2.2-21.1-14.2-18.9-26.8l12-69.6c2.2-12.6,14.2-21.1,26.8-18.9l69.6,12
			c12.6,2.2,21.1,14.2,18.9,26.8l-12,69.6C431.5,350.9,419.5,359.4,406.8,357.2z"/>
	</g>
	<g>
		<g>
			<path class="st4" d="M87.6,316.3l-10.1-46.8l9.5-2l10.1,46.8L87.6,316.3z"/>
			<path class="st4" d="M117,310.8c-1.6,0.4-3.2,0.5-4.6,0.4s-2.8-0.4-4-1.1c-1.2-0.6-2.3-1.5-3.3-2.8c-1-1.2-1.9-2.8-2.7-4.7
				c-0.8-1.9-1.5-4.2-2.1-6.8c-0.8-3.9-1.1-7.3-0.7-10.3c0.4-2.9,1.5-5.3,3.4-7.1c1.8-1.9,4.6-3.2,8.1-3.9c1-0.2,2.3-0.4,3.8-0.6
				c1.5-0.1,2.7-0.3,3.6-0.3l-3-14l9.2-2l10.5,48.4l-9,2l-0.5-2c-0.6,0.5-1.3,1.1-2.2,1.7s-1.9,1.3-3,1.8
				C119.2,310.1,118.1,310.5,117,310.8z M117.7,302.6c0.8-0.2,1.6-0.4,2.4-0.8c0.8-0.4,1.6-0.8,2.3-1.2c0.7-0.4,1.3-0.8,1.7-1.1
				l-4-18.4c-0.4,0-1,0-1.7,0.1c-0.7,0.1-1.4,0.2-2.2,0.3c-0.7,0.1-1.4,0.2-2,0.3c-1.8,0.4-3.1,1.1-3.9,2.1c-0.8,1-1.2,2.4-1.3,4
				c-0.1,1.7,0.1,3.6,0.6,5.9c0.4,2,0.9,3.6,1.5,4.8c0.6,1.2,1.2,2.2,1.9,2.8c0.7,0.6,1.4,1,2.2,1.2
				C116,302.8,116.8,302.8,117.7,302.6z"/>
		</g>
	</g>
	<g>
		<g>
			<path class="st5" d="M213.8,238v-47.9h18c4,0,7.3,0.5,9.9,1.6c2.6,1.1,4.6,2.9,5.9,5.3c1.3,2.4,2,5.7,2,9.7c0,4.1-0.7,7.4-2,9.9
				c-1.3,2.5-3.3,4.4-5.9,5.6c-2.6,1.2-5.9,1.8-9.9,1.8h-8.3V238H213.8z M223.4,216.2h8.1c2.9,0,5-0.8,6.3-2.3
				c1.3-1.6,1.9-3.9,1.9-7c0-3.2-0.6-5.4-1.9-6.8s-3.4-2-6.3-2h-8.1V216.2z"/>
			<path class="st5" d="M267.9,238.8c-1.5,0-3.2-0.1-4.9-0.2c-1.8-0.2-3.4-0.4-4.9-0.6c-1.5-0.2-2.8-0.5-3.9-0.7l0.3-6.9
				c1.2,0.1,2.6,0.3,4.1,0.5c1.5,0.2,3,0.3,4.5,0.5c1.5,0.1,2.7,0.2,3.6,0.2c1.4,0,2.6-0.1,3.5-0.4c0.9-0.2,1.6-0.6,2.1-1.2
				c0.5-0.5,0.7-1.3,0.7-2.3c0-0.8-0.2-1.4-0.6-1.8c-0.4-0.4-1.1-0.8-2.2-1.1c-1.1-0.3-2.7-0.6-4.8-0.9c-2.6-0.4-4.8-0.9-6.5-1.6
				c-1.7-0.7-3-1.7-3.8-3.1c-0.8-1.4-1.2-3.3-1.2-5.6c0-2.9,0.6-5.2,1.9-6.8s2.9-2.8,5-3.5c2.1-0.7,4.4-1,6.9-1c1.6,0,3.3,0.1,5,0.2
				c1.7,0.2,3.4,0.4,4.9,0.6c1.5,0.2,2.8,0.5,3.9,0.7l-0.3,7.1c-1.2-0.2-2.5-0.4-4.1-0.5c-1.5-0.2-3.1-0.3-4.6-0.4
				c-1.5-0.1-2.8-0.1-3.8-0.1c-1.1,0-2,0.1-2.9,0.3c-0.8,0.2-1.5,0.5-1.9,1c-0.4,0.5-0.7,1.2-0.7,2.1c0,0.7,0.2,1.2,0.6,1.6
				c0.4,0.4,1.1,0.8,2.1,1.1c1.1,0.3,2.6,0.6,4.6,0.9c2.9,0.4,5.2,1,6.9,1.8c1.7,0.7,3,1.8,3.8,3.2c0.8,1.4,1.2,3.3,1.2,5.7
				c0,4.3-1.3,7.2-3.8,8.9C276.1,238,272.6,238.8,267.9,238.8z"/>
		</g>
	</g>
	<g>
		<g>
			<path class="st6" d="M349.1,311.9l20.1-45.1l16.6,2.9l3.8,49.2l-9.5-1.6l-1-10l-16.5-2.8l-4.1,9.1L349.1,311.9z M365.6,297
				l13.6,2.3l-1.5-23.2l-2.9-0.5L365.6,297z"/>
			<path class="st6" d="M394.4,319.7l6-34.7l9.2,1.6l-6,34.7L394.4,319.7z M401.3,279.5l1.4-7.9l9.3,1.6l-1.4,7.9L401.3,279.5z"/>
		</g>
	</g>
</g>
<path class="st7" d="M132,164.4c2.8,3.9-2.1,8.6-5.9,5.7l0,0l-18.8-14.4c-2-1.5-2.2-4.5-0.4-6.2l2.4-2.4l2.4-2.4
	c1.8-1.8,4.7-1.5,6.2,0.5L132,164.4L132,164.4z"/>
<path class="st7" d="M247.4,123c-0.7,4.7-7.5,4.7-8.2,0v0l-3.4-23.4c-0.4-2.5,1.6-4.7,4.1-4.7l3.4,0h3.4c2.5,0,4.5,2.2,4.1,4.7
	L247.4,123L247.4,123z"/>
<path class="st7" d="M340.9,169.1c-3.9,2.8-8.6-2.2-5.6-5.9l0,0l14.6-18.6c1.6-2,4.5-2.1,6.2-0.3l2.3,2.5l2.3,2.5
	c1.7,1.8,1.5,4.8-0.6,6.2L340.9,169.1L340.9,169.1z"/>
</svg>
