<?xml version="1.0" encoding="utf-8"?>
<!-- Generator: Adobe Illustrator 27.1.1, SVG Export Plug-In . SVG Version: 6.00 Build 0)  -->
<svg version="1.1" id="Layer_1" xmlns="http://www.w3.org/2000/svg" xmlns:xlink="http://www.w3.org/1999/xlink" x="0px" y="0px"
	 viewBox="0 0 489 455" style="enable-background:new 0 0 489 455;" xml:space="preserve">
<style type="text/css">
	.st0{opacity:0.6;fill:#FFFFFF;}
	.st1{fill:#FF2715;}
	.st2{fill:#F9BC02;}
	.st3{fill:#FC9902;}
	.st4{fill:#FD5309;}
	.st5{fill:#A9184B;}
	.st6{fill:#3E02A6;}
	.st7{fill:#0246FF;}
	.st8{fill:#0392CC;}
	.st9{fill:#D2EA2C;}
	.st10{fill:#65B131;}
	.st11{fill:none;stroke:#9180EE;stroke-width:1.2391;stroke-miterlimit:10;}
	.st12{fill:#FFFF32;stroke:#9180EE;stroke-width:1.0636;stroke-miterlimit:10;}
	.st13{fill:#8601B0;stroke:#9180EE;stroke-width:1.0636;stroke-miterlimit:10;}
	.st14{fill:#F9F1B3;}
</style>
<path class="st0" d="M433.8,449.9H55.1c-27.6,0-50-22.4-50-50V54.4c0-27.6,22.4-50,50-50h378.8c27.6,0,50,22.4,50,50v345.5
	C483.8,427.5,461.5,449.9,433.8,449.9z"/>
<g>
	<path class="st1" d="M177,198.9L177,198.9c-0.1,0.2-0.1,0.4-0.2,0.6c-0.5,1.1-0.9,2.3-1.3,3.4c-0.1,0.4-0.3,0.8-0.4,1.2
		c-0.3,0.8-0.6,1.7-0.8,2.6c-0.4,1.3-0.7,2.6-1,3.9c-0.5,2-0.9,4-1.2,6.1c-0.1,0.7-0.2,1.3-0.3,2c-0.1,0.7-0.1,1.3-0.2,2
		c0,0.3-0.1,0.7-0.1,1c0,0.4-0.1,0.7-0.1,1.1c0,0.7-0.1,1.3-0.1,2c0,1.1-0.1,2.2,0,3.3c0,0.9,0,1.8,0.1,2.7l-0.5,0.1l-6.5,1.1
		l-37.3,6.2l-2.5,0.4c-0.1-0.8-0.1-1.6-0.2-2.4c0-0.1,0-0.1,0-0.2c0-0.1,0-0.2,0-0.3c0-0.1,0-0.2,0-0.3c0-0.4-0.1-0.9-0.1-1.3
		c0-0.4,0-0.7,0-1.1c0-0.4,0-0.7,0-1.1c0-0.7,0-1.5,0-2.2c0-1,0-2.1,0-3.1c0,0,0,0,0-0.1c0-0.5,0-1,0-1.6c0-0.4,0-0.9,0.1-1.3
		c0-0.4,0-0.7,0.1-1.1c0-0.8,0.1-1.6,0.2-2.4c0.1-0.9,0.2-1.9,0.3-2.8c0-0.3,0.1-0.5,0.1-0.8c0.1-0.7,0.1-1.3,0.2-2c0,0,0-0.1,0-0.2
		c0.1-0.6,0.2-1.1,0.2-1.7c0.2-1.5,0.4-2.9,0.7-4.4c0.1-0.6,0.2-1.1,0.3-1.7c0.1-0.8,0.3-1.5,0.5-2.3c0,0,0,0,0-0.1c0,0,0,0,0,0
		c0.1-0.6,0.3-1.2,0.4-1.7c0.3-1.2,0.6-2.4,0.9-3.7c0.2-0.7,0.4-1.5,0.6-2.3c0.2-0.6,0.4-1.2,0.5-1.8c0.2-0.7,0.4-1.3,0.6-1.9
		c0.2-0.6,0.4-1.3,0.7-1.9c0.3-1,0.7-1.9,1-2.9c0.2-0.5,0.4-1.1,0.6-1.7c0.2-0.4,0.3-0.9,0.5-1.3c0.2-0.6,0.5-1.1,0.7-1.7
		c0.1-0.2,0.2-0.4,0.3-0.7c0.2-0.4,0.4-0.8,0.5-1.2c0.4-0.9,0.8-1.7,1.2-2.6c0,0,0-0.1,0-0.1c0.5-1,1-2,1.5-3l0.1,0.1l33.8,19.7
		l1.8,1L177,198.9z"/>
	<path class="st2" d="M301.6,127.1l-25.2,34.2l-3.7-1.6c-11.2-4.7-23.3-6.4-35.1-5.3c-1.9,0.2-3.7,0.4-5.5,0.7l4.2-43.8
		c1.2-0.1,2.5-0.1,3.7-0.1c18-0.4,36,3.3,52.7,11.2L301.6,127.1z"/>
	<path class="st3" d="M236.5,111.5c-20.7,1.1-41.1,7.6-58.9,19.3c0,0-0.1,0-0.1,0c-0.1,0.1-0.2,0.1-0.3,0.2
		c-1.9,1.2-3.7,2.5-5.5,3.9l1-2.1c-0.1,0-0.1,0.1-0.2,0.1l-1.1,2.2l0.1,0.2l24.5,35.9l0.5,0.8l0,0.1c1.8-1.6,3.7-3,5.6-4.4
		c9.1-6.5,19.4-10.7,30-12.5c1.8-0.3,3.7-0.6,5.5-0.7l2.5-43.1C238.9,111.3,237.7,111.4,236.5,111.5z"/>
	<path class="st4" d="M176.5,131.3l25.5,36.2c-2,1.3-3.9,2.8-5.7,4.3c-2.4,2-4.7,4.2-6.8,6.6c-0.3,0.3-0.6,0.6-0.8,1
		c-0.2,0.3-0.5,0.5-0.7,0.8c-0.2,0.3-0.5,0.6-0.7,0.9c-3.1,3.9-5.7,8-7.9,12.4c0,0,0,0,0,0c-0.6,1.3-1.2,2.6-1.7,3.9
		c-0.2,0.5-0.4,1-0.6,1.5c-0.1,0.2-0.1,0.4-0.2,0.6l-1.2-0.5l-41.1-17.5l-0.2-0.1c0.4-0.9,0.8-1.7,1.2-2.6c0,0,0-0.1,0-0.1
		c1.1-2.8,2.4-5.5,3.7-8.3l0.5,0.3c3.4-6,7.4-11.7,11.9-17.1l0-0.1c0.7-0.9,1.5-1.8,2.3-2.7c5.3-6,11.1-11.3,17.3-15.9
		c0.1-0.1,0.2-0.2,0.3-0.2C173.2,133.5,174.8,132.4,176.5,131.3z"/>
	<path class="st1" d="M179.5,193.6c-0.7,1.3-1.3,2.5-1.8,3.8c-0.2,0.5-0.4,1-0.7,1.5c-0.1,0.2-0.2,0.4-0.2,0.6
		c-0.5,1.1-0.9,2.3-1.3,3.4c-0.1,0.4-0.3,0.8-0.4,1.2c-0.3,0.8-0.6,1.7-0.8,2.6c-0.4,1.3-0.7,2.6-1,3.9c-0.5,2-0.9,4-1.2,6.1
		c-0.1,0.7-0.2,1.3-0.3,2c-0.1,0.7-0.1,1.3-0.2,2c0,0.3-0.1,0.7-0.1,1c0,0.4-0.1,0.7-0.1,1.1c0,0.7-0.1,1.3-0.1,2
		c0,1.1-0.1,2.2,0,3.3c0,0.9,0,1.8,0.1,2.7c0,1,0.1,2,0.2,3l-0.3,0.1l-44,7c-0.1-0.9-0.2-1.8-0.3-2.7c-0.4-4.4-0.6-8.7-0.6-13.1
		c0.1-14.4,2.6-28.7,7.6-42.3c0.2-0.4,0.3-0.8,0.5-1.3c0.3-0.9,0.7-1.8,1-2.7c0,0,0-0.1,0-0.1c1.1-2.8,2.4-5.5,3.7-8.3l0.5,0.3
		l0.2,0.1l39.1,22.5l0.3,0.2L179.5,193.6z"/>
	<path class="st5" d="M139.4,287.9c-0.7-1.2-1.3-2.4-1.9-3.6c0,0,0,0,0,0c0,0,0-0.1,0-0.1c0,0,0,0,0-0.1
		c-7.4-14.3-11.8-29.9-13-45.7c-0.1-0.8-0.1-1.6-0.2-2.4c0-0.1,0-0.1,0-0.2c0-0.1,0-0.2,0-0.3c0-0.1,0-0.2,0-0.3
		c0-0.4-0.1-0.9-0.1-1.3c0-0.4,0-0.7,0-1.1c0-0.4,0-0.7,0-1.1c0-0.7,0-1.5,0-2.2c0-1,0-2.1,0-3.1c0,0,0,0,0-0.1c0-0.5,0-1,0-1.6
		l2.2,0.2l41.6,3.1l2.6,0.2c0.1,0.9,0.1,1.7,0.2,2.6c0.1,1,0.2,2,0.4,2.9c0.2,1.4,0.5,2.8,0.8,4.2c1.5,10.2,5.1,20.1,10.8,29
		c0.3,0.6,0.7,1.1,1.1,1.6c0,0.1,0.1,0.2,0.2,0.2l-41.3,24.4L139.4,287.9z"/>
	<path class="st6" d="M264.7,298.1l-1.1,47.8c-1.7,0.3-3.5,0.6-5.3,0.8c-1.3,0.2-2.6,0.3-3.9,0.5c-1,0.1-2,0.2-3,0.3
		c-0.7,0.1-1.4,0.1-2.2,0.1c-0.6,0.1-1.3,0.1-1.9,0.1c-0.1,0-0.1,0-0.2,0c-0.4,0-0.7,0-1.1,0c-0.5,0-1,0-1.5,0c-0.2,0-0.3,0-0.5,0
		c-0.4,0-0.9,0-1.3,0c-0.5,0-0.9,0-1.3,0c-0.3,0-0.5,0-0.8,0c-1.3,0-2.7-0.1-4-0.1c-2.5-0.1-4.9-0.3-7.4-0.6
		c-10.9-1.2-21.7-3.9-32.1-8.2c-3.5-1.4-6.9-3-10.3-4.8c-1.8-1-3.6-2-5.4-3.1c-0.9-0.5-1.8-1.1-2.7-1.7L206,290
		c0.6,0.4,1.3,0.8,2,1.2c1.6,0.9,3.2,1.8,4.9,2.6c2.2,1.1,4.5,2,6.9,2.9c3,1.1,6.1,2,9.3,2.7c0,0,0,0,0,0c0.8,0.2,1.6,0.3,2.4,0.5
		c2.7,0.5,5.5,0.9,8.3,1c0.1,0,0.2,0,0.3,0c0.6,0,1.3,0.1,1.9,0.1c0.6,0,1.3,0,1.9,0c1.3,0,2.5,0,3.8-0.1c2.9-0.1,5.8-0.4,8.7-0.9
		C259.1,299.6,261.9,298.9,264.7,298.1z"/>
	<path class="st7" d="M301.2,278.1l27.7,32.2c-2.4,2.6-4.9,5-7.4,7.3c0,0-0.1,0.1-0.1,0.1l0,0c0,0,0,0,0,0c-2.6,2.4-5.3,4.6-8.1,6.7
		c-1.6,1.2-3.2,2.3-4.8,3.4c0,0,0,0,0,0c-1.5,1-2.9,1.9-4.4,2.8c-0.3,0.2-0.5,0.3-0.8,0.5c-0.1,0.1-0.2,0.1-0.3,0.2
		c-12.3,7.3-25.6,12.2-39.3,14.7c-1.7,0.3-3.5,0.6-5.3,0.8c-1.3,0.2-2.6,0.3-3.9,0.5c-1,0.1-2,0.2-3,0.3c-0.7,0.1-1.4,0.1-2.2,0.1
		c-0.6,0.1-1.3,0.1-1.9,0.1c-0.1,0-0.1,0-0.2,0c-0.4,0-0.7,0-1.1,0c-0.5,0-1,0-1.5,0c-0.2,0-0.3,0-0.5,0l-4.1-47.1l-0.1-0.8
		c3.1,0.2,6.3,0.2,9.4,0.1c2.9-0.1,5.8-0.4,8.7-0.9c3.2-0.5,6.4-1.2,9.5-2.1c0.9-0.3,1.8-0.5,2.8-0.8c2.2-0.7,4.3-1.4,6.4-2.3
		c1.3-0.5,2.6-1.1,3.9-1.7c0.5-0.2,0.9-0.5,1.4-0.7c4.3-2.2,8.5-4.7,12.4-7.7c0.1-0.1,0.2-0.1,0.2-0.2c0.6-0.5,1.3-1,1.9-1.5
		C298.2,280.9,299.7,279.5,301.2,278.1z"/>
	<path class="st8" d="M350,279c-0.4,0.8-0.8,1.7-1.2,2.5c-0.2,0.4-0.4,0.8-0.6,1.2c-0.3,0.5-0.5,1.1-0.8,1.6
		c-4.4,8.5-9.9,16.5-16.6,24c-0.6,0.7-1.2,1.4-1.9,2c-2.4,2.6-4.9,5-7.4,7.3c0,0-0.1,0.1-0.1,0.1l0,0c0,0,0,0,0,0
		c-2.6,2.4-5.3,4.6-8.1,6.7c-1.6,1.2-3.2,2.3-4.8,3.4c0,0,0,0,0,0c-1.5,1-2.9,1.9-4.4,2.8l-21.9-39l-0.1-0.1l0-0.1l-0.3-0.6
		c0.1,0,0.2-0.1,0.2-0.1c0.6-0.4,1.2-0.7,1.9-1.1c5.9-3.5,11.3-7.9,16-13.2c3.9-4.4,7.2-9.2,9.7-14.3c0.2-0.3,0.4-0.7,0.5-1
		c0,0,0-0.1,0-0.1c0,0,0-0.1,0.1-0.1c0.2-0.4,0.4-0.8,0.5-1.1L350,279z"/>
	<g>
		<g>
			<path class="st4" d="M172,169.6c2.4,0,2.4-3.7,0-3.7C169.6,165.9,169.6,169.6,172,169.6L172,169.6z"/>
		</g>
	</g>
	<path class="st9" d="M340.5,163.4c1.8,2.7,3.4,5.4,5,8.1c0,0,0,0,0,0c0.4,0.8,0.9,1.6,1.3,2.4c1.7,3,3.2,6.2,4.6,9.3
		c0.2,0.5,0.4,1,0.7,1.6c4.5,11.1,7.3,22.8,8.3,34.7c0.1,1.1,0.2,2.1,0.2,3.2c0,0.1,0,0.2,0,0.3c0,0.1,0,0.1,0,0.2
		c0,0.6,0.1,1.3,0.1,1.9c0,0.9,0.1,1.8,0.1,2.8c0,0.9,0,1.9,0,2.8c0,0.1,0,0.2,0,0.3c0,0.1,0,0.2,0,0.3l0,0c0,0,0,0.1,0,0.1
		c0,0.4,0,0.8,0,1.2l-39.4-1.8l-2.3-0.1c-0.2-1.4-0.3-2.8-0.6-4.1c0,0,0-0.1,0-0.1c-0.1-0.5-0.2-1-0.3-1.5c-0.1-0.3-0.1-0.6-0.2-0.9
		c0-0.1,0-0.1,0-0.2c-0.4-5-1.3-10-2.7-14.9c-1.5-5.2-3.4-10.3-5.9-15.2c-0.3-0.6-0.6-1.1-0.9-1.7l0.3-0.2c-0.7-1.2-1.4-2.4-2.2-3.6
		L340.5,163.4z"/>
	<path class="st10" d="M360.3,219.5c0.1,1.1,0.2,2.1,0.2,3.2c0,0.1,0,0.2,0,0.3c0,0.1,0,0.1,0,0.2c0,0.6,0.1,1.3,0.1,1.9
		c0,0.9,0.1,1.8,0.1,2.8c0,0.9,0,1.9,0,2.8c0,0.1,0,0.2,0,0.3c0,0.1,0,0.2,0,0.3l0,0c0,0,0,0.1,0,0.1c0,0.4,0,0.8,0,1.2
		c0,0.2,0,0.4,0,0.6c0,0.6,0,1.2-0.1,1.8c0,0.7-0.1,1.5-0.1,2.2c0,0.3,0,0.7-0.1,1c-0.1,0.9-0.1,1.7-0.2,2.6c0,0.5-0.1,1.1-0.2,1.6
		c-0.1,0.6-0.1,1.1-0.2,1.7c-0.1,0.4-0.1,0.8-0.2,1.2c-0.1,0.7-0.2,1.3-0.3,2c-0.1,0.4-0.1,0.8-0.2,1.2c-0.1,0.6-0.2,1.2-0.3,1.8
		c0,0.1,0,0.2,0,0.3c-0.1,0.4-0.2,0.9-0.2,1.3c0,0,0,0.1,0,0.1c-0.2,0.9-0.3,1.8-0.5,2.6c-0.2,1-0.4,2-0.7,3c-0.2,1-0.5,2-0.8,3.1
		c0,0,0,0,0,0c-0.1,0.5-0.3,1-0.4,1.5c-0.1,0.5-0.3,1-0.4,1.5c-0.3,1-0.6,2-0.9,3l0,0c-0.3,0.9-0.6,1.7-0.9,2.6
		c-0.1,0.3-0.2,0.7-0.4,1c-0.3,0.8-0.6,1.6-0.9,2.4c0,0,0,0,0,0c-0.2,0.5-0.4,1-0.6,1.5c-0.2,0.5-0.4,1-0.6,1.5
		c-0.3,0.8-0.7,1.6-1,2.4c-0.1,0.2-0.1,0.3-0.2,0.5s-0.1,0.3-0.2,0.5c-0.4,0.8-0.8,1.7-1.2,2.5c-0.2,0.4-0.4,0.8-0.6,1.2
		c-0.3,0.5-0.5,1.1-0.8,1.6l-1.8-1L311,263.1l-1.6-0.9c0.2-0.3,0.4-0.7,0.5-1c0,0,0-0.1,0-0.1c0,0,0-0.1,0.1-0.1
		c0.2-0.4,0.4-0.8,0.6-1.1c0.1-0.1,0.1-0.2,0.1-0.3c0-0.1,0.1-0.1,0.1-0.2c0.1-0.2,0.2-0.4,0.3-0.6c0,0,0-0.1,0.1-0.1c0,0,0,0,0-0.1
		c0.2-0.4,0.4-0.8,0.6-1.2c0.1-0.3,0.3-0.6,0.4-0.8c0.2-0.4,0.4-0.8,0.5-1.2c0.1-0.3,0.2-0.5,0.3-0.8c0.2-0.5,0.4-0.9,0.5-1.4
		c0.1-0.3,0.2-0.5,0.3-0.8c0.2-0.5,0.3-1,0.5-1.4c0.1-0.2,0.1-0.3,0.1-0.5c0-0.1,0.1-0.2,0.1-0.3c0.1-0.4,0.3-0.8,0.4-1.3
		c0,0,0-0.1,0.1-0.2c0-0.1,0-0.1,0.1-0.2c0.2-0.7,0.4-1.4,0.6-2c0.2-0.7,0.4-1.4,0.5-2.1c0,0,0-0.1,0-0.1c0.1-0.4,0.2-0.8,0.3-1.2
		c0.1-0.3,0.1-0.6,0.2-0.9c0.2-0.9,0.3-1.8,0.5-2.8c0-0.1,0-0.2,0-0.3c0.1-0.4,0.2-0.9,0.2-1.3c0.1-0.4,0.1-0.8,0.2-1.3
		c0,0,0,0,0-0.1c0-0.3,0.1-0.6,0.1-0.9c0-0.1,0-0.3,0-0.4c0.1-0.5,0.1-0.9,0.1-1.4c0-0.1,0-0.3,0-0.4c0.1-0.7,0.1-1.5,0.1-2.2
		c0.1-1.5,0.1-3,0.1-4.4l0.1,0l0.3,0l1.5-0.2l39.7-6.6L360.3,219.5z"/>
	<path class="st11" d="M318,225.5c0,0.3,0,0.7,0,1l0.1,0l0.3,0c0,0,0-0.1,0-0.1c-0.1-0.5-0.2-1-0.3-1.5c-0.1-0.3-0.1-0.6-0.2-0.9
		C318,224.4,318,224.9,318,225.5z M301.6,127.1c-2.9-1.7-5.8-3.2-8.8-4.6c-16.7-7.9-34.8-11.6-52.7-11.2c-1.2,0-2.4,0-3.7,0.1
		c-20.7,1-41.1,7.5-59,19.3c0,0-0.1,0-0.1,0c-0.1,0.1-0.2,0.1-0.3,0.2c-0.2,0.1-0.4,0.3-0.6,0.4c-1.7,1.1-3.3,2.3-4.9,3.5
		c-0.1,0.1-0.2,0.2-0.3,0.2c-6.2,4.6-11.9,9.9-17.3,15.9c-0.8,0.9-1.6,1.8-2.3,2.7l0,0.1c-4.5,5.4-8.5,11.2-11.9,17.1c0,0,0,0,0,0
		c-0.7,1.2-1.3,2.3-2,3.5l0,0c0,0.1-0.1,0.1-0.1,0.2c0,0.1-0.1,0.1-0.1,0.2c0,0,0,0,0,0c-0.2,0.3-0.3,0.6-0.5,0.9c-0.5,1-1,2-1.5,3
		c0,0,0,0.1,0,0.1c-0.4,0.9-0.8,1.7-1.2,2.6c-0.2,0.4-0.4,0.8-0.5,1.2c-0.1,0.2-0.2,0.4-0.3,0.7c-0.2,0.6-0.5,1.1-0.7,1.7
		c-0.2,0.4-0.3,0.8-0.5,1.3c-0.2,0.5-0.4,1.1-0.6,1.7c-0.4,1-0.7,1.9-1,2.9c-0.2,0.6-0.5,1.3-0.7,1.9c-0.2,0.6-0.4,1.3-0.6,1.9
		c-0.2,0.6-0.4,1.2-0.5,1.8c-0.2,0.8-0.4,1.5-0.6,2.3c-0.3,1.2-0.6,2.4-0.9,3.7c-0.1,0.6-0.3,1.2-0.4,1.7c0,0,0,0,0,0c0,0,0,0,0,0.1
		c-0.2,0.8-0.3,1.5-0.5,2.3c-0.1,0.6-0.2,1.1-0.3,1.7c-0.3,1.5-0.5,2.9-0.7,4.4c-0.1,0.6-0.2,1.1-0.2,1.7c0,0,0,0.1,0,0.2
		c-0.1,0.7-0.2,1.3-0.2,2c0,0.3-0.1,0.5-0.1,0.8c-0.1,0.9-0.2,1.9-0.3,2.8c-0.1,0.8-0.1,1.6-0.2,2.4c0,0.4,0,0.7-0.1,1.1
		c0,0.4,0,0.9-0.1,1.3c0,0.5,0,1,0,1.6c0,0,0,0,0,0.1c0,1.1,0,2.1,0,3.1c0,0.7,0,1.5,0,2.2c0,0.4,0,0.7,0,1.1c0,0.4,0,0.7,0,1.1
		c0,0.4,0,0.9,0.1,1.3c0,0.1,0,0.2,0,0.3c0,0.1,0,0.2,0,0.3c0,0.1,0,0.1,0,0.2c0,0.8,0.1,1.6,0.2,2.4c1.2,15.8,5.6,31.4,13,45.7
		c0,0,0,0,0,0.1c0,0,0,0,0,0.1c0,0,0,0,0,0c0.6,1.2,1.3,2.4,1.9,3.6c0.4,0.7,0.9,1.5,1.3,2.2c0.6,1,1.3,2.1,1.9,3.1
		c1.9,2.9,3.9,5.8,6,8.5c0,0,0,0.1,0.1,0.1l0,0c0,0,0,0,0,0.1c4.4,5.7,9.4,11,15,16c4.8,4.3,9.9,8.1,15.1,11.4
		c0.9,0.6,1.8,1.1,2.7,1.7c1.8,1.1,3.6,2.1,5.4,3.1c3.4,1.8,6.8,3.4,10.3,4.8c10.3,4.3,21.1,7,32.1,8.2c2.5,0.3,4.9,0.5,7.4,0.6
		c1.3,0.1,2.7,0.1,4,0.1c0.3,0,0.5,0,0.8,0c0.4,0,0.9,0,1.3,0c0.4,0,0.9,0,1.3,0c0.2,0,0.3,0,0.5,0c0.5,0,1,0,1.5,0
		c0.4,0,0.7,0,1.1,0c0.1,0,0.1,0,0.2,0c0.6,0,1.2,0,1.9-0.1c0.7,0,1.5-0.1,2.2-0.1c1-0.1,2-0.2,3-0.3c1.3-0.1,2.6-0.3,3.9-0.5
		c1.8-0.2,3.5-0.5,5.3-0.8c13.7-2.5,27.1-7.4,39.3-14.7c0.1-0.1,0.2-0.1,0.3-0.2c0.3-0.2,0.5-0.3,0.8-0.5c1.5-0.9,3-1.8,4.4-2.8
		c0,0,0,0,0,0c1.6-1.1,3.2-2.2,4.8-3.4c2.8-2.1,5.5-4.3,8.1-6.7c0,0,0,0,0,0l0,0c0,0,0.1-0.1,0.1-0.1c2.6-2.3,5-4.7,7.4-7.3
		c0.6-0.7,1.3-1.4,1.9-2c6.6-7.5,12.2-15.5,16.6-24c0.3-0.5,0.5-1.1,0.8-1.6c0.2-0.4,0.4-0.8,0.6-1.2c0.4-0.8,0.8-1.7,1.2-2.5
		c0.1-0.2,0.1-0.3,0.2-0.5s0.1-0.3,0.2-0.5c0.4-0.8,0.7-1.6,1-2.4c0.2-0.5,0.4-1,0.6-1.5c0.2-0.5,0.4-1,0.6-1.5c0,0,0,0,0,0
		c0.3-0.8,0.6-1.6,0.9-2.4c0.1-0.3,0.3-0.7,0.4-1c0.3-0.9,0.6-1.7,0.9-2.6l0,0c0.3-1,0.6-2,0.9-3c0.2-0.5,0.3-1,0.4-1.5
		c0.1-0.5,0.3-1,0.4-1.5c0,0,0,0,0,0c0.3-1,0.5-2,0.8-3.1c0.2-1,0.5-2,0.7-3c0.2-0.9,0.4-1.8,0.5-2.6c0,0,0-0.1,0-0.1
		c0.1-0.4,0.2-0.9,0.2-1.3c0-0.1,0-0.2,0-0.3c0.1-0.6,0.2-1.2,0.3-1.8c0.1-0.4,0.1-0.8,0.2-1.2c0.1-0.7,0.2-1.3,0.3-2
		c0.1-0.4,0.1-0.8,0.2-1.2c0.1-0.6,0.1-1.1,0.2-1.7c0.1-0.5,0.1-1.1,0.2-1.6c0.1-0.9,0.2-1.7,0.2-2.6c0-0.3,0-0.7,0.1-1
		c0.1-0.7,0.1-1.5,0.1-2.2c0-0.6,0.1-1.2,0.1-1.8c0-0.2,0-0.4,0-0.6c0-0.4,0-0.8,0-1.2c0,0,0-0.1,0-0.1l0,0c0-0.1,0-0.2,0-0.3
		c0-0.1,0-0.2,0-0.3c0-0.9,0-1.9,0-2.8c0-0.9,0-1.8-0.1-2.8c0-0.6,0-1.3-0.1-1.9c0-0.1,0-0.1,0-0.2c0-0.1,0-0.2,0-0.3
		c-0.1-1.1-0.1-2.1-0.2-3.2c-1-11.9-3.8-23.5-8.3-34.7c-0.2-0.5-0.4-1.1-0.7-1.6c-1.3-3.2-2.8-6.3-4.4-9.3c-1.4-2.5-2.8-5-4.4-7.5
		c-5.8-9.2-12.9-17.7-21.4-25.2C314.9,135.7,308.4,131,301.6,127.1z M306.6,188.1c0.8,1.2,1.5,2.4,2.2,3.6c0,0.1,0.1,0.2,0.2,0.3
		c0.3,0.5,0.5,0.9,0.8,1.4c3,5.7,5.2,11.7,6.6,17.9c0.9,4.2,1.5,8.4,1.7,12.6c0,0.5,0.1,1,0.1,1.5c0,0.3,0,0.7,0,1
		c0,1.5,0,3-0.1,4.4c0,0.7-0.1,1.5-0.1,2.2c0,0.1,0,0.3,0,0.4c0,0.5-0.1,0.9-0.1,1.4c0,0.1,0,0.3,0,0.4c0,0.3-0.1,0.6-0.1,0.9
		c0,0,0,0,0,0.1c-0.1,0.4-0.1,0.8-0.2,1.3c-0.1,0.4-0.1,0.9-0.2,1.3c0,0.1,0,0.2,0,0.3c-0.1,0.9-0.3,1.8-0.5,2.8
		c-0.1,0.3-0.1,0.6-0.2,0.9c-0.1,0.4-0.2,0.8-0.3,1.2c0,0,0,0.1,0,0.1c-0.2,0.7-0.3,1.4-0.5,2.1c-0.2,0.7-0.4,1.4-0.6,2
		c0,0.1,0,0.1-0.1,0.2c0,0.1,0,0.1-0.1,0.2c-0.1,0.4-0.3,0.8-0.4,1.3c0,0.1-0.1,0.2-0.1,0.3c0,0.2-0.1,0.3-0.1,0.5
		c-0.2,0.5-0.3,1-0.5,1.4c-0.1,0.3-0.2,0.5-0.3,0.8c-0.2,0.5-0.4,0.9-0.5,1.4c-0.1,0.3-0.2,0.5-0.3,0.8c-0.2,0.4-0.3,0.8-0.5,1.2
		c-0.1,0.3-0.2,0.6-0.4,0.8c-0.2,0.4-0.4,0.8-0.6,1.2c0,0,0,0,0,0.1c0,0,0,0.1-0.1,0.1c-0.1,0.2-0.2,0.4-0.3,0.6
		c0,0.1-0.1,0.1-0.1,0.2c0,0.1-0.1,0.2-0.1,0.3c-0.2,0.4-0.4,0.7-0.6,1.1c0,0,0,0.1-0.1,0.1c0,0,0,0.1,0,0.1c-0.2,0.3-0.4,0.7-0.5,1
		c-2.7,5-6,9.8-9.9,14.2c-3.4,3.8-7.2,7.2-11.1,10.2c-1.5,1.1-3.1,2.2-4.6,3.2c-0.6,0.4-1.2,0.8-1.8,1.1c-0.1,0-0.2,0.1-0.2,0.1
		c-3.7,2.1-7.5,3.9-11.4,5.4c-0.6,0.2-1.2,0.5-1.9,0.7c-1.2,0.4-2.5,0.8-3.7,1.1c-2.8,0.8-5.6,1.4-8.5,1.9c-2.9,0.5-5.8,0.8-8.7,0.9
		c-1.3,0-2.5,0.1-3.8,0.1c-0.6,0-1.3,0-1.9,0c-0.6,0-1.3-0.1-1.9-0.1c-0.1,0-0.2,0-0.3,0c-2.8-0.2-5.5-0.5-8.3-1
		c-0.8-0.1-1.6-0.3-2.4-0.5c0,0,0,0,0,0c-3.1-0.7-6.2-1.6-9.3-2.7c-2.3-0.8-4.6-1.8-6.9-2.9c-1.7-0.8-3.3-1.7-4.9-2.6
		c-0.7-0.4-1.3-0.8-2-1.2c-1-0.6-2-1.3-3-2c0,0-0.1,0-0.1-0.1l0,0c0,0-0.1,0-0.1-0.1c-2.4-1.7-4.7-3.5-7-5.5
		c-4.6-4.1-8.6-8.6-11.9-13.5c-0.1-0.1-0.1-0.1-0.2-0.2c-0.4-0.5-0.7-1.1-1.1-1.6c-5.7-8.9-9.3-18.8-10.8-29
		c-0.2-1.4-0.4-2.8-0.5-4.3c-0.1-1-0.2-2-0.2-3c0-0.9-0.1-1.8-0.1-2.7c0-1.1,0-2.2,0-3.3c0-0.7,0.1-1.3,0.1-2c0-0.4,0.1-0.7,0.1-1.1
		c0-0.4,0-0.7,0.1-1c0.1-0.7,0.1-1.4,0.2-2c0.1-0.7,0.2-1.3,0.3-2c0.3-2,0.7-4.1,1.2-6.1c0.3-1.3,0.6-2.6,1-3.9
		c0.3-0.9,0.5-1.7,0.8-2.6c0.1-0.4,0.3-0.8,0.4-1.2c0.4-1.1,0.8-2.3,1.3-3.4c0.1-0.2,0.2-0.4,0.2-0.6c0.2-0.5,0.4-1,0.7-1.5
		c0.6-1.3,1.2-2.6,1.8-3.8c2.2-4.3,4.9-8.3,8-12.2c0.2-0.3,0.5-0.6,0.7-0.9c0.2-0.3,0.4-0.6,0.7-0.8c0.3-0.3,0.6-0.6,0.8-1
		c2.1-2.4,4.4-4.6,6.7-6.7c1.8-1.6,3.7-3,5.6-4.4c9.1-6.5,19.4-10.7,30-12.5c1.8-0.3,3.7-0.6,5.5-0.7c11.8-1.1,23.9,0.6,35.1,5.3
		c1.2,0.5,2.4,1.1,3.7,1.6c6,2.9,11.7,6.7,17,11.3C298.6,177.3,303,182.5,306.6,188.1z M318,225.5c0,0.3,0,0.7,0,1l0.1,0l0.3,0
		c0,0,0-0.1,0-0.1c-0.1-0.5-0.2-1-0.3-1.5c-0.1-0.3-0.1-0.6-0.2-0.9C318,224.4,318,224.9,318,225.5z"/>
	<path class="st12" d="M329.2,132c8.5,7.6,15.2,16.6,20.1,26.7c1.3,2.7,2.5,5.5,3.6,8.4l-0.1,0.1l0,0l-48.4,32.3l-0.5,0.3
		c-0.2-0.6-0.4-1.3-0.7-1.9l0.4-0.3c-0.6-1.4-1.1-2.7-1.8-4c-3-6.2-7.1-11.7-12.4-16.3c-5.2-4.7-11.2-8.1-17.8-10.4l-4-1.2
		l31.9-50.6l9.5,3.8C316.3,122.2,323.1,126.6,329.2,132z"/>
	<path class="st13" d="M158,326.8c-8.5-7.6-15.2-16.6-20.1-26.7c-1.3-2.7-2.5-5.5-3.6-8.4l0.1-0.1l0,0l48.4-32.3l0.5-0.3
		c0.2,0.6,0.4,1.3,0.7,1.9l-0.4,0.3c0.6,1.4,1.1,2.7,1.8,4c3,6.2,7.1,11.7,12.4,16.3c5.2,4.7,11.2,8.1,17.8,10.4l4,1.2l-31.9,50.6
		l-9.5-3.8C170.9,336.6,164.2,332.2,158,326.8z"/>
	<path class="st14" d="M128.8,369.1c2.2-4.2,8.6-1.9,7.7,2.7l0,0l-4.6,23.2c-0.5,2.5-3.1,3.9-5.4,3.1l-3.2-1.1l-3.2-1.1
		c-2.4-0.8-3.4-3.6-2.3-5.8L128.8,369.1L128.8,369.1z"/>
	<path class="st14" d="M97.4,330.8c4.5-1.4,7.5,4.7,3.6,7.4l0,0l-19.6,13.3c-2.1,1.4-4.9,0.7-6-1.6l-1.5-3.1l-1.5-3.1
		c-1.1-2.3,0.1-5,2.5-5.7L97.4,330.8L97.4,330.8z"/>
	<path class="st14" d="M360.2,85.2c-2.2,4.2-8.6,1.9-7.7-2.7v0l4.6-23.2c0.5-2.5,3.1-3.9,5.4-3.1l3.2,1.1l3.2,1.1
		c2.4,0.8,3.4,3.6,2.3,5.8L360.2,85.2L360.2,85.2z"/>
	<path class="st14" d="M391.6,123.4c-4.5,1.4-7.5-4.7-3.6-7.4l0,0l19.6-13.3c2.1-1.4,4.9-0.7,6,1.6l1.5,3.1l1.5,3.1
		c1.1,2.3-0.1,5-2.5,5.7L391.6,123.4L391.6,123.4z"/>
</g>
</svg>
