<?xml version="1.0" encoding="utf-8"?>
<!-- Generator: Adobe Illustrator 27.1.1, SVG Export Plug-In . SVG Version: 6.00 Build 0)  -->
<svg version="1.1" id="Layer_1" xmlns="http://www.w3.org/2000/svg" xmlns:xlink="http://www.w3.org/1999/xlink" x="0px" y="0px"
	 viewBox="0 0 489 455" style="enable-background:new 0 0 489 455;" xml:space="preserve">
<style type="text/css">
	.st0{opacity:0.6;fill:#FFFFFF;}
	.st1{fill:url(#SVGID_1_);}
	.st2{fill:url(#SVGID_00000109013198687283416160000001931472670018117529_);}
</style>
<path class="st0" d="M433.8,449.9H55.1c-27.6,0-50-22.4-50-50V54.4c0-27.6,22.4-50,50-50h378.8c27.6,0,50,22.4,50,50v345.5
	C483.8,427.5,461.5,449.9,433.8,449.9z"/>
<g>
	<g>
		
			<linearGradient id="SVGID_1_" gradientUnits="userSpaceOnUse" x1="260.2664" y1="285.4803" x2="339.2735" y2="379.7448" gradientTransform="matrix(0.9994 -3.457956e-02 3.457956e-02 0.9994 -11.8262 11.0271)">
			<stop  offset="0.2045" style="stop-color:#3A334A"/>
			<stop  offset="0.2722" style="stop-color:#3D3650;stop-opacity:0.8769"/>
			<stop  offset="0.3631" style="stop-color:#463E61;stop-opacity:0.7116"/>
			<stop  offset="0.4672" style="stop-color:#554B7D;stop-opacity:0.5221"/>
			<stop  offset="0.5812" style="stop-color:#6A5DA4;stop-opacity:0.3147"/>
			<stop  offset="0.7019" style="stop-color:#8475D6;stop-opacity:9.515882e-02"/>
			<stop  offset="0.7542" style="stop-color:#9180EE;stop-opacity:0"/>
		</linearGradient>
		<path class="st1" d="M388.6,311.5c0.4,10.5-46.5,20.6-104.8,22.6s-105.7-4.9-106.1-15.3c-0.4-10.5,46.5-20.6,104.8-22.6
			C340.7,294.1,388.2,301,388.6,311.5z"/>
	</g>
	<g>
		
			<linearGradient id="SVGID_00000165955563993253911620000012910250272225326239_" gradientUnits="userSpaceOnUse" x1="179.9079" y1="174.418" x2="266.6065" y2="340.295">
			<stop  offset="0" style="stop-color:#9180EE"/>
			<stop  offset="6.081174e-02" style="stop-color:#8576D8"/>
			<stop  offset="0.2413" style="stop-color:#665A9C"/>
			<stop  offset="0.395" style="stop-color:#4F4570"/>
			<stop  offset="0.5139" style="stop-color:#403955"/>
			<stop  offset="0.5838" style="stop-color:#3B344B"/>
			<stop  offset="0.8234" style="stop-color:#3A334A"/>
		</linearGradient>
		<circle style="fill:url(#SVGID_00000165955563993253911620000012910250272225326239_);" cx="205.6" cy="223.6" r="105.5"/>
	</g>
</g>
</svg>
