<?xml version="1.0" encoding="utf-8"?>
<!-- Generator: Adobe Illustrator 27.1.1, SVG Export Plug-In . SVG Version: 6.00 Build 0)  -->
<svg version="1.1" id="Layer_1" xmlns="http://www.w3.org/2000/svg" xmlns:xlink="http://www.w3.org/1999/xlink" x="0px" y="0px"
	 viewBox="0 0 489 455" style="enable-background:new 0 0 489 455;" xml:space="preserve">
<style type="text/css">
	.st0{fill:#9180EE;}
	.st1{fill:#F9F1B3;}
	.st2{opacity:0.4;fill:#F9F1B3;}
	.st3{opacity:0.6;fill:#9180EE;}
	.st4{fill:#FFFFFF;}
</style>
<g>
	<path class="st0" d="M344.34,410.89h-200c-28.55,0-51.7-23.15-51.7-51.7V245.27c0-28.55,23.15-51.7,51.7-51.7h200
		c28.55,0,51.7,23.15,51.7,51.7v113.92C396.04,387.74,372.89,410.89,344.34,410.89z"/>
	<circle class="st1" cx="243.98" cy="305.64" r="70.31"/>
	<circle class="st0" cx="243.13" cy="305.64" r="60.08"/>
	<rect x="312.52" y="205.5" class="st1" width="55.49" height="30.68"/>
	<path class="st2" d="M314.22,247.26"/>
	<path class="st2" d="M369.71,247.26"/>
	<path class="st0" d="M172.33,198.68h-31.53c-6.33,0-11.51-5.18-11.51-11.51v0c0-6.33,5.18-11.51,11.51-11.51h31.53
		c6.33,0,11.51,5.18,11.51,11.51v0C183.83,193.51,178.65,198.68,172.33,198.68z"/>
	<path class="st0" d="M297.95,204.65h-88.48c-2.39,0-4.34-1.95-4.34-4.34v-21.76c0-11.51,9.41-20.92,20.92-20.92h55.32
		c11.51,0,20.92,9.41,20.92,20.92v21.76C302.29,202.7,300.34,204.65,297.95,204.65z"/>
</g>
<path class="st3" d="M433.78,450H55c-27.61,0-50-22.39-50-50V54.51c0-27.61,22.39-50,50-50h378.78c27.61,0,50,22.39,50,50V400
	C483.78,427.61,461.39,450,433.78,450z"/>
<g>
	<g>
		<path class="st4" d="M69.99,236.02v-27.58h10.79c2.19,0,4.05,0.3,5.58,0.89c1.53,0.6,2.75,1.46,3.67,2.6
			c0.92,1.14,1.58,2.53,1.99,4.2c0.41,1.66,0.61,3.56,0.61,5.7c0,2.14-0.19,4.08-0.57,5.82c-0.38,1.74-1.01,3.24-1.91,4.5
			c-0.89,1.26-2.09,2.22-3.59,2.88c-1.5,0.66-3.36,0.99-5.58,0.99H69.99z M76.4,230.66h4.18c1.19,0,2.16-0.22,2.9-0.67
			c0.74-0.45,1.3-1.07,1.68-1.87c0.38-0.8,0.64-1.74,0.77-2.82c0.13-1.08,0.2-2.24,0.2-3.49c0-1.24-0.07-2.35-0.22-3.33
			c-0.15-0.97-0.42-1.82-0.81-2.53c-0.39-0.72-0.95-1.26-1.68-1.64c-0.73-0.38-1.68-0.57-2.84-0.57H76.4V230.66z"/>
		<path class="st4" d="M96.03,212.78v-4.95h6.21v4.95H96.03z M96.03,236.02v-20.4h6.21v20.4H96.03z"/>
		<path class="st4" d="M115.54,245.22c-2.16,0-4-0.16-5.52-0.47c-1.51-0.31-2.66-0.89-3.43-1.72c-0.77-0.84-1.16-2.05-1.16-3.65
			c0-0.7,0.09-1.33,0.28-1.87c0.19-0.54,0.5-1.06,0.93-1.56c0.43-0.5,0.99-1.01,1.66-1.52c-0.38-0.3-0.69-0.71-0.93-1.24
			c-0.24-0.53-0.36-1.1-0.36-1.72c0-0.32,0.21-0.8,0.63-1.42c0.42-0.62,0.84-1.16,1.28-1.62c-0.54-0.27-1.05-0.64-1.54-1.12
			c-0.49-0.47-0.89-1.12-1.22-1.93c-0.32-0.81-0.49-1.84-0.49-3.08c0-2.62,0.74-4.47,2.23-5.54c1.49-1.07,3.69-1.6,6.61-1.6
			c0.68,0,1.43,0.05,2.25,0.14c0.82,0.09,1.48,0.21,1.97,0.34l6.77-0.16v4.06l-2.84-0.04c0.24,0.3,0.45,0.68,0.61,1.14
			c0.16,0.46,0.24,1.01,0.24,1.66c0,1.89-0.32,3.35-0.97,4.38c-0.65,1.03-1.62,1.74-2.92,2.13c-1.3,0.39-2.96,0.59-4.99,0.59
			c-0.22,0-0.5-0.02-0.85-0.06c-0.35-0.04-0.65-0.07-0.89-0.1c-0.08,0.22-0.18,0.47-0.28,0.75c-0.11,0.28-0.16,0.49-0.16,0.63
			c0,0.3,0.12,0.53,0.37,0.69s0.73,0.27,1.46,0.32c0.73,0.05,1.83,0.08,3.29,0.08c1.92,0,3.45,0.18,4.58,0.55s1.95,1,2.43,1.91
			c0.49,0.91,0.73,2.17,0.73,3.79c0,2.43-0.87,4.25-2.6,5.46C120.99,244.62,118.6,245.22,115.54,245.22z M115.18,240.72
			c1.57,0,2.69-0.16,3.37-0.49c0.68-0.32,1.01-0.87,1.01-1.62c0-0.57-0.12-0.99-0.37-1.28c-0.24-0.28-0.64-0.47-1.2-0.55
			c-0.55-0.08-1.3-0.12-2.25-0.12c-0.27,0-0.6-0.01-0.97-0.02c-0.38-0.01-0.74-0.03-1.1-0.04c-0.35-0.01-0.68-0.03-0.97-0.04
			c-0.3-0.01-0.51-0.03-0.65-0.06c-0.51,0.35-0.86,0.68-1.03,0.97c-0.18,0.3-0.26,0.69-0.26,1.18c0,0.51,0.14,0.92,0.43,1.22
			c0.28,0.3,0.75,0.51,1.4,0.65C113.23,240.65,114.09,240.72,115.18,240.72z M114.57,225.15c1.08,0,1.86-0.22,2.33-0.67
			c0.47-0.45,0.71-1.18,0.71-2.21c0-1.03-0.24-1.76-0.71-2.21c-0.47-0.45-1.25-0.67-2.33-0.67c-1.05,0-1.81,0.22-2.27,0.67
			c-0.46,0.45-0.69,1.18-0.69,2.21c0,1.03,0.23,1.76,0.69,2.21C112.76,224.92,113.51,225.15,114.57,225.15z"/>
		<path class="st4" d="M128.07,212.78v-4.95h6.21v4.95H128.07z M128.07,236.02v-20.4h6.21v20.4H128.07z"/>
		<path class="st4" d="M145.55,236.5c-1.51,0-2.74-0.21-3.69-0.63c-0.95-0.42-1.63-1.16-2.05-2.23c-0.42-1.07-0.63-2.58-0.63-4.52
			v-8.4H137v-5.11h2.19v-5.07h6.21v5.07h4.79v5.11h-4.79v6.85c0,0.92,0.05,1.64,0.14,2.15c0.09,0.51,0.29,0.88,0.59,1.1
			c0.3,0.22,0.74,0.32,1.34,0.32c0.16,0,0.42-0.01,0.77-0.04c0.35-0.03,0.71-0.05,1.07-0.06c0.36-0.01,0.64-0.03,0.83-0.06
			l0.16,4.91c-0.68,0.14-1.48,0.27-2.41,0.41C146.95,236.44,146.18,236.5,145.55,236.5z"/>
		<path class="st4" d="M158.53,236.5c-2.22,0-3.87-0.54-4.97-1.62c-1.1-1.08-1.64-2.73-1.64-4.95c0-1.57,0.29-2.78,0.87-3.63
			c0.58-0.85,1.43-1.47,2.53-1.85c1.11-0.38,2.45-0.61,4.02-0.69l4.54-0.37v-1.05c0-0.81-0.22-1.39-0.67-1.72
			c-0.45-0.34-1.1-0.51-1.97-0.51c-0.78,0-1.68,0.03-2.68,0.08c-1,0.05-1.99,0.12-2.96,0.2c-0.97,0.08-1.81,0.16-2.51,0.24l-0.2-4.3
			c0.73-0.19,1.6-0.37,2.62-0.55c1.01-0.18,2.07-0.32,3.18-0.45c1.11-0.12,2.15-0.18,3.12-0.18c1.76,0,3.25,0.21,4.48,0.63
			c1.23,0.42,2.17,1.12,2.82,2.11c0.65,0.99,0.97,2.36,0.97,4.12v8.92c0.08,0.33,0.28,0.58,0.59,0.75c0.31,0.18,0.66,0.3,1.03,0.38
			l-0.12,4.14c-0.62,0.05-1.28,0.09-1.97,0.12s-1.24,0.01-1.64-0.04c-0.7-0.08-1.31-0.25-1.81-0.51c-0.5-0.26-0.87-0.52-1.12-0.79
			c-0.43,0.19-1,0.41-1.7,0.65s-1.47,0.45-2.29,0.61C160.24,236.42,159.4,236.5,158.53,236.5z M160.08,232
			c0.46,0,0.93-0.05,1.4-0.16c0.47-0.11,0.93-0.23,1.36-0.37c0.43-0.13,0.78-0.26,1.05-0.37v-4.02l-3.57,0.32
			c-0.76,0.08-1.31,0.32-1.66,0.71c-0.35,0.39-0.53,0.94-0.53,1.64c0,0.68,0.16,1.22,0.49,1.62C158.94,231.8,159.43,232,160.08,232z
			"/>
		<path class="st4" d="M174.51,236.02V207.5h6.21v28.51H174.51z"/>
		<path class="st4" d="M193.9,236.02v-27.58h10.46c2.41,0,4.4,0.31,5.98,0.93c1.58,0.62,2.77,1.64,3.57,3.06
			c0.8,1.42,1.2,3.37,1.2,5.86c0,2.43-0.4,4.4-1.2,5.9c-0.8,1.5-1.99,2.59-3.57,3.27c-1.58,0.68-3.58,1.01-5.98,1.01h-4.06v7.54
			H193.9z M200.31,223.28h3.85c1.57,0,2.7-0.41,3.39-1.24c0.69-0.82,1.03-2.08,1.03-3.75c0-1.7-0.34-2.91-1.01-3.61
			c-0.68-0.7-1.81-1.05-3.41-1.05h-3.85V223.28z"/>
		<path class="st4" d="M218.03,236.02V207.5h6.21v8.76c0.65-0.24,1.49-0.49,2.51-0.73c1.03-0.24,1.93-0.37,2.72-0.37
			c1.92,0,3.41,0.33,4.48,0.99c1.07,0.66,1.83,1.74,2.27,3.22c0.45,1.49,0.67,3.47,0.67,5.96v10.67h-6.21v-10.14
			c0-1.27-0.07-2.3-0.22-3.08c-0.15-0.78-0.43-1.35-0.83-1.7c-0.41-0.35-1-0.53-1.78-0.53c-0.65,0-1.31,0.08-1.99,0.24
			c-0.68,0.16-1.22,0.31-1.62,0.45v14.76H218.03z"/>
		<path class="st4" d="M249.79,236.5c-2.3,0-4.17-0.37-5.62-1.12s-2.5-1.91-3.16-3.51c-0.66-1.6-0.99-3.65-0.99-6.17
			c0-2.49,0.34-4.5,1.03-6.04c0.69-1.54,1.76-2.68,3.22-3.41s3.3-1.1,5.52-1.1c2.27,0,4.13,0.37,5.58,1.1s2.51,1.87,3.2,3.41
			c0.69,1.54,1.04,3.56,1.04,6.04c0,2.52-0.33,4.57-0.99,6.17c-0.66,1.6-1.72,2.76-3.16,3.51S252.12,236.5,249.79,236.5z
			 M249.79,231.39c1,0,1.75-0.19,2.25-0.57c0.5-0.38,0.84-0.99,1.01-1.83s0.26-1.93,0.26-3.29c0-1.38-0.11-2.46-0.32-3.24
			c-0.22-0.78-0.58-1.35-1.08-1.7c-0.5-0.35-1.21-0.53-2.13-0.53c-0.89,0-1.6,0.18-2.11,0.53c-0.51,0.35-0.88,0.93-1.1,1.72
			c-0.22,0.8-0.32,1.87-0.32,3.22c0,1.35,0.09,2.45,0.28,3.29c0.19,0.84,0.53,1.45,1.03,1.83
			C248.08,231.21,248.82,231.39,249.79,231.39z"/>
		<path class="st4" d="M270.19,236.5c-1.51,0-2.75-0.21-3.69-0.63c-0.95-0.42-1.63-1.16-2.05-2.23c-0.42-1.07-0.63-2.58-0.63-4.52
			v-8.4h-2.19v-5.11h2.19v-5.07h6.21v5.07h4.79v5.11h-4.79v6.85c0,0.92,0.05,1.64,0.14,2.15c0.09,0.51,0.29,0.88,0.59,1.1
			c0.3,0.22,0.74,0.32,1.34,0.32c0.16,0,0.42-0.01,0.77-0.04c0.35-0.03,0.71-0.05,1.08-0.06c0.37-0.01,0.64-0.03,0.83-0.06
			l0.16,4.91c-0.68,0.14-1.48,0.27-2.41,0.41C271.59,236.44,270.82,236.5,270.19,236.5z"/>
		<path class="st4" d="M286.62,236.5c-2.3,0-4.17-0.37-5.62-1.12s-2.5-1.91-3.16-3.51c-0.66-1.6-0.99-3.65-0.99-6.17
			c0-2.49,0.34-4.5,1.03-6.04c0.69-1.54,1.76-2.68,3.22-3.41s3.3-1.1,5.52-1.1c2.27,0,4.13,0.37,5.58,1.1s2.51,1.87,3.2,3.41
			c0.69,1.54,1.04,3.56,1.04,6.04c0,2.52-0.33,4.57-0.99,6.17c-0.66,1.6-1.72,2.76-3.16,3.51S288.95,236.5,286.62,236.5z
			 M286.62,231.39c1,0,1.75-0.19,2.25-0.57c0.5-0.38,0.84-0.99,1.01-1.83s0.26-1.93,0.26-3.29c0-1.38-0.11-2.46-0.32-3.24
			c-0.22-0.78-0.58-1.35-1.08-1.7c-0.5-0.35-1.21-0.53-2.13-0.53c-0.89,0-1.6,0.18-2.11,0.53c-0.51,0.35-0.88,0.93-1.1,1.72
			c-0.22,0.8-0.32,1.87-0.32,3.22c0,1.35,0.09,2.45,0.28,3.29c0.19,0.84,0.53,1.45,1.03,1.83
			C284.91,231.21,285.65,231.39,286.62,231.39z"/>
		<path class="st4" d="M309.05,245.22c-2.16,0-4-0.16-5.52-0.47s-2.66-0.89-3.43-1.72s-1.16-2.05-1.16-3.65
			c0-0.7,0.09-1.33,0.28-1.87c0.19-0.54,0.5-1.06,0.93-1.56s0.99-1.01,1.66-1.52c-0.38-0.3-0.69-0.71-0.93-1.24
			c-0.24-0.53-0.37-1.1-0.37-1.72c0-0.32,0.21-0.8,0.63-1.42c0.42-0.62,0.84-1.16,1.28-1.62c-0.54-0.27-1.05-0.64-1.54-1.12
			c-0.49-0.47-0.89-1.12-1.22-1.93c-0.33-0.81-0.49-1.84-0.49-3.08c0-2.62,0.74-4.47,2.23-5.54c1.49-1.07,3.69-1.6,6.61-1.6
			c0.68,0,1.43,0.05,2.25,0.14c0.83,0.09,1.48,0.21,1.97,0.34l6.77-0.16v4.06l-2.84-0.04c0.24,0.3,0.45,0.68,0.61,1.14
			c0.16,0.46,0.24,1.01,0.24,1.66c0,1.89-0.32,3.35-0.97,4.38c-0.65,1.03-1.62,1.74-2.92,2.13c-1.3,0.39-2.96,0.59-4.99,0.59
			c-0.22,0-0.5-0.02-0.85-0.06c-0.35-0.04-0.65-0.07-0.89-0.1c-0.08,0.22-0.18,0.47-0.28,0.75c-0.11,0.28-0.16,0.49-0.16,0.63
			c0,0.3,0.12,0.53,0.37,0.69s0.73,0.27,1.46,0.32c0.73,0.05,1.83,0.08,3.29,0.08c1.92,0,3.45,0.18,4.58,0.55s1.95,1,2.43,1.91
			c0.49,0.91,0.73,2.17,0.73,3.79c0,2.43-0.87,4.25-2.6,5.46C314.5,244.62,312.11,245.22,309.05,245.22z M308.69,240.72
			c1.57,0,2.69-0.16,3.37-0.49c0.68-0.32,1.01-0.87,1.01-1.62c0-0.57-0.12-0.99-0.37-1.28s-0.64-0.47-1.2-0.55
			c-0.55-0.08-1.3-0.12-2.25-0.12c-0.27,0-0.59-0.01-0.97-0.02c-0.38-0.01-0.74-0.03-1.1-0.04s-0.68-0.03-0.97-0.04
			c-0.3-0.01-0.51-0.03-0.65-0.06c-0.51,0.35-0.86,0.68-1.03,0.97c-0.18,0.3-0.26,0.69-0.26,1.18c0,0.51,0.14,0.92,0.43,1.22
			c0.28,0.3,0.75,0.51,1.4,0.65C306.74,240.65,307.6,240.72,308.69,240.72z M308.08,225.15c1.08,0,1.86-0.22,2.33-0.67
			c0.47-0.45,0.71-1.18,0.71-2.21c0-1.03-0.24-1.76-0.71-2.21c-0.47-0.45-1.25-0.67-2.33-0.67c-1.05,0-1.81,0.22-2.27,0.67
			c-0.46,0.45-0.69,1.18-0.69,2.21c0,1.03,0.23,1.76,0.69,2.21C306.27,224.92,307.02,225.15,308.08,225.15z"/>
		<path class="st4" d="M321.58,236.02v-20.4h6.21v2.31c0.43-0.35,0.97-0.72,1.62-1.12c0.65-0.39,1.34-0.75,2.07-1.07
			c0.73-0.32,1.43-0.53,2.11-0.61v5.92c-0.65,0.08-1.34,0.24-2.07,0.47c-0.73,0.23-1.42,0.49-2.07,0.77
			c-0.65,0.28-1.2,0.55-1.66,0.79v12.94H321.58z"/>
		<path class="st4" d="M341.74,236.5c-2.22,0-3.87-0.54-4.97-1.62c-1.09-1.08-1.64-2.73-1.64-4.95c0-1.57,0.29-2.78,0.87-3.63
			c0.58-0.85,1.43-1.47,2.54-1.85c1.11-0.38,2.45-0.61,4.02-0.69l4.54-0.37v-1.05c0-0.81-0.22-1.39-0.67-1.72
			c-0.45-0.34-1.1-0.51-1.97-0.51c-0.78,0-1.68,0.03-2.68,0.08c-1,0.05-1.99,0.12-2.96,0.2c-0.97,0.08-1.81,0.16-2.51,0.24l-0.2-4.3
			c0.73-0.19,1.6-0.37,2.62-0.55c1.01-0.18,2.08-0.32,3.18-0.45s2.15-0.18,3.12-0.18c1.76,0,3.25,0.21,4.48,0.63
			c1.23,0.42,2.17,1.12,2.82,2.11c0.65,0.99,0.97,2.36,0.97,4.12v8.92c0.08,0.33,0.28,0.58,0.59,0.75s0.66,0.3,1.03,0.38l-0.12,4.14
			c-0.62,0.05-1.28,0.09-1.97,0.12c-0.69,0.03-1.24,0.01-1.64-0.04c-0.7-0.08-1.3-0.25-1.8-0.51c-0.5-0.26-0.87-0.52-1.12-0.79
			c-0.43,0.19-1,0.41-1.7,0.65c-0.7,0.24-1.47,0.45-2.29,0.61C343.45,236.42,342.61,236.5,341.74,236.5z M343.28,232
			c0.46,0,0.93-0.05,1.4-0.16c0.47-0.11,0.93-0.23,1.36-0.37c0.43-0.13,0.78-0.26,1.05-0.37v-4.02l-3.57,0.32
			c-0.76,0.08-1.31,0.32-1.66,0.71c-0.35,0.39-0.53,0.94-0.53,1.64c0,0.68,0.16,1.22,0.49,1.62C342.15,231.8,342.63,232,343.28,232z
			"/>
		<path class="st4" d="M357.6,244.45v-28.84h6.12l0.04,1.26c0.38-0.24,0.84-0.5,1.4-0.77c0.55-0.27,1.16-0.49,1.8-0.67
			c0.65-0.18,1.28-0.26,1.91-0.26c2.76,0,4.73,0.89,5.92,2.68c1.19,1.78,1.79,4.44,1.79,7.95c0,2.49-0.29,4.52-0.87,6.1
			c-0.58,1.58-1.52,2.75-2.82,3.49s-3.03,1.12-5.19,1.12c-0.65,0-1.35-0.06-2.09-0.18c-0.74-0.12-1.35-0.22-1.8-0.3v8.44H357.6z
			 M366.56,231.39c0.97,0,1.73-0.22,2.27-0.67c0.54-0.45,0.93-1.09,1.16-1.95c0.23-0.85,0.35-1.9,0.35-3.14
			c0-2.03-0.27-3.42-0.81-4.18c-0.54-0.76-1.34-1.14-2.39-1.14c-0.35,0-0.74,0.05-1.16,0.14c-0.42,0.1-0.82,0.21-1.2,0.34
			c-0.38,0.14-0.7,0.27-0.97,0.41v9.9c0.27,0.05,0.67,0.12,1.2,0.18C365.53,231.36,366.05,231.39,366.56,231.39z"/>
		<path class="st4" d="M379.91,236.02V207.5h6.21v8.76c0.65-0.24,1.49-0.49,2.51-0.73c1.03-0.24,1.93-0.37,2.72-0.37
			c1.92,0,3.41,0.33,4.48,0.99c1.07,0.66,1.83,1.74,2.27,3.22c0.45,1.49,0.67,3.47,0.67,5.96v10.67h-6.21v-10.14
			c0-1.27-0.07-2.3-0.22-3.08c-0.15-0.78-0.43-1.35-0.83-1.7c-0.41-0.35-1-0.53-1.79-0.53c-0.65,0-1.31,0.08-1.99,0.24
			s-1.22,0.31-1.62,0.45v14.76H379.91z"/>
		<path class="st4" d="M407.85,244.45l2.6-8.44h-4.79l-4.54-20.4h6.49l3.16,15.17h0.93l3.12-15.17h6.21l-6.53,28.84H407.85z"/>
	</g>
</g>
</svg>
