<?xml version="1.0" encoding="utf-8"?>
<!-- Generator: Adobe Illustrator 27.1.1, SVG Export Plug-In . SVG Version: 6.00 Build 0)  -->
<svg version="1.1" id="Layer_1" xmlns="http://www.w3.org/2000/svg" xmlns:xlink="http://www.w3.org/1999/xlink" x="0px" y="0px"
	 viewBox="0 0 489 455" style="enable-background:new 0 0 489 455;" xml:space="preserve">
<style type="text/css">
	.st0{fill:#FF2715;}
	.st1{fill:#FFFF32;}
	.st2{fill:#F9BC02;}
	.st3{fill:#FC9902;}
	.st4{fill:#FD5309;}
	.st5{fill:#A9184B;}
	.st6{fill:#8601B0;}
	.st7{fill:#3E02A6;}
	.st8{fill:#0246FF;}
	.st9{fill:#0392CC;}
	.st10{fill:#D2EA2C;}
	.st11{fill:#65B131;}
	.st12{fill:none;stroke:#9180EE;stroke-width:1.1415;stroke-miterlimit:10;}
	.st13{opacity:0.6;fill:#9180EE;}
	.st14{fill:#FFFFFF;}
</style>
<g>
	<path class="st0" d="M184.2,198.9L184.2,198.9c-0.1,0.2-0.1,0.4-0.2,0.5c-0.4,1-0.8,2.1-1.2,3.1c-0.1,0.4-0.3,0.7-0.4,1.1
		c-0.3,0.8-0.5,1.6-0.8,2.4c-0.4,1.2-0.7,2.4-0.9,3.6c-0.4,1.9-0.8,3.7-1.1,5.6c-0.1,0.6-0.2,1.2-0.3,1.9c-0.1,0.6-0.1,1.2-0.2,1.9
		c0,0.3-0.1,0.6-0.1,1c0,0.3-0.1,0.7-0.1,1c0,0.6-0.1,1.2-0.1,1.8c0,1-0.1,2,0,3c0,0.8,0,1.6,0.1,2.5l-0.5,0.1l-6,1l-34.4,5.7
		l-2.3,0.4c-0.1-0.7-0.1-1.5-0.1-2.2c0-0.1,0-0.1,0-0.2c0-0.1,0-0.2,0-0.2c0-0.1,0-0.2,0-0.3c0-0.4,0-0.8-0.1-1.2c0-0.3,0-0.7,0-1
		c0-0.3,0-0.7,0-1c0-0.7,0-1.4,0-2.1c0-1,0-1.9,0-2.9c0,0,0,0,0-0.1c0-0.5,0-1,0-1.4c0-0.4,0-0.8,0.1-1.2c0-0.3,0-0.7,0.1-1
		c0-0.7,0.1-1.5,0.2-2.2c0.1-0.8,0.1-1.7,0.2-2.6c0-0.3,0.1-0.5,0.1-0.8c0.1-0.6,0.1-1.2,0.2-1.8c0,0,0-0.1,0-0.1
		c0.1-0.5,0.1-1.1,0.2-1.6c0.2-1.4,0.4-2.7,0.7-4c0.1-0.5,0.2-1.1,0.3-1.6c0.1-0.7,0.3-1.4,0.4-2.1c0,0,0,0,0-0.1c0,0,0,0,0,0
		c0.1-0.5,0.2-1.1,0.4-1.6c0.3-1.1,0.5-2.2,0.9-3.4c0.2-0.7,0.4-1.4,0.6-2.1c0.2-0.6,0.3-1.1,0.5-1.6c0.2-0.6,0.4-1.2,0.6-1.8
		c0.2-0.6,0.4-1.2,0.6-1.8c0.3-0.9,0.6-1.8,1-2.7c0.2-0.5,0.4-1,0.6-1.5c0.1-0.4,0.3-0.8,0.5-1.2c0.2-0.5,0.4-1,0.6-1.5
		c0.1-0.2,0.2-0.4,0.3-0.6c0.2-0.4,0.3-0.8,0.5-1.1c0.3-0.8,0.7-1.6,1.1-2.4c0,0,0-0.1,0-0.1c0.4-0.9,0.9-1.9,1.4-2.8l0.1,0.1
		l31.2,18.1l1.6,1L184.2,198.9z"/>
	<path class="st1" d="M317,145.7c7.8,7,14.4,14.8,19.8,23.3c1.4,2.3,2.8,4.6,4,6.9l-0.1,0l0,0l-34.1,18l-0.3,0.2
		c-0.2-0.5-0.5-1-0.8-1.5l0.3-0.2c-0.6-1.1-1.3-2.2-2-3.3c-3.3-5.2-7.3-10-12.1-14.2c-4.8-4.3-10.1-7.8-15.6-10.4l-3.4-1.5
		l18.4-34.3l8.1,4.3C305.3,136.3,311.3,140.7,317,145.7z"/>
	<path class="st2" d="M299.1,132.7l-23.2,31.5l-3.4-1.5c-10.3-4.3-21.5-5.9-32.4-4.8c-1.7,0.1-3.4,0.4-5.1,0.7l3.9-40.3
		c1.1-0.1,2.3-0.1,3.4-0.1c16.6-0.3,33.2,3.1,48.6,10.3L299.1,132.7z"/>
	<path class="st3" d="M239,118.3c-19,1-37.8,7-54.2,17.8c0,0,0,0-0.1,0c-0.1,0.1-0.2,0.1-0.3,0.2c-1.7,1.1-3.4,2.3-5.1,3.6l0.9-1.9
		c-0.1,0-0.1,0.1-0.2,0.1l-1,2.1l0.1,0.2l22.6,33.1l0.5,0.7l0,0.1c1.7-1.4,3.4-2.8,5.1-4c8.4-6,17.8-9.8,27.6-11.5
		c1.7-0.3,3.4-0.5,5.1-0.7l2.3-39.7C241.3,118.2,240.2,118.2,239,118.3z"/>
	<path class="st4" d="M183.8,136.6l23.5,33.4c-1.8,1.2-3.6,2.5-5.2,4c-2.2,1.9-4.3,3.9-6.3,6.1c-0.3,0.3-0.5,0.6-0.8,0.9
		c-0.2,0.2-0.4,0.5-0.6,0.8c-0.2,0.3-0.5,0.6-0.7,0.8c-2.9,3.6-5.3,7.4-7.2,11.4c0,0,0,0,0,0c-0.6,1.2-1.1,2.4-1.6,3.6
		c-0.2,0.5-0.4,1-0.6,1.4c-0.1,0.2-0.1,0.4-0.2,0.5l-1.1-0.5l-37.9-16.1l-0.1,0c0.3-0.8,0.7-1.6,1.1-2.4c0,0,0-0.1,0-0.1
		c1-2.6,2.2-5.1,3.4-7.6l0.4,0.3c3.1-5.5,6.8-10.8,11-15.8l0-0.1c0.7-0.8,1.4-1.6,2.1-2.5c4.9-5.5,10.2-10.4,15.9-14.7
		c0.1-0.1,0.2-0.2,0.3-0.2C180.7,138.6,182.2,137.6,183.8,136.6z"/>
	<path class="st0" d="M186.6,194c-0.6,1.2-1.2,2.3-1.7,3.5c-0.2,0.5-0.4,0.9-0.6,1.4c-0.1,0.2-0.1,0.3-0.2,0.5
		c-0.4,1-0.8,2.1-1.2,3.1c-0.1,0.4-0.3,0.7-0.4,1.1c-0.3,0.8-0.5,1.6-0.8,2.4c-0.4,1.2-0.7,2.4-0.9,3.6c-0.4,1.9-0.8,3.7-1.1,5.6
		c-0.1,0.6-0.2,1.2-0.3,1.9c-0.1,0.6-0.1,1.2-0.2,1.9c0,0.3-0.1,0.6-0.1,1c0,0.3-0.1,0.7-0.1,1c0,0.6-0.1,1.2-0.1,1.8c0,1-0.1,2,0,3
		c0,0.8,0,1.6,0.1,2.5c0,0.9,0.1,1.8,0.2,2.7l-0.3,0l-40.5,6.5c-0.1-0.8-0.2-1.7-0.3-2.5c-0.4-4-0.6-8-0.5-12.1
		c0.1-13.2,2.4-26.4,7-39c0.1-0.4,0.3-0.8,0.4-1.2c0.3-0.8,0.6-1.6,1-2.4c0,0,0-0.1,0-0.1c1-2.6,2.2-5.1,3.4-7.6l0.4,0.3l0.2,0.1
		l36,20.7l0.3,0.2L186.6,194z"/>
	<path class="st5" d="M149.7,280.9c-0.6-1.1-1.2-2.2-1.8-3.3c0,0,0,0,0,0c0,0,0,0,0-0.1c0,0,0,0,0-0.1c-6.9-13.2-10.9-27.5-12-42.1
		c-0.1-0.7-0.1-1.5-0.1-2.2c0-0.1,0-0.1,0-0.2c0-0.1,0-0.2,0-0.2c0-0.1,0-0.2,0-0.3c0-0.4,0-0.8-0.1-1.2c0-0.3,0-0.7,0-1
		c0-0.3,0-0.7,0-1c0-0.7,0-1.4,0-2.1c0-1,0-1.9,0-2.9c0,0,0,0,0-0.1c0-0.5,0-1,0-1.4l2,0.1l38.4,2.8l2.4,0.2
		c0.1,0.8,0.1,1.6,0.2,2.4c0.1,0.9,0.2,1.8,0.4,2.7c0.2,1.3,0.4,2.6,0.7,3.9c1.3,9.4,4.7,18.5,9.9,26.8c0.3,0.5,0.6,1,1,1.5
		c0,0.1,0.1,0.1,0.1,0.2l-38.1,22.5L149.7,280.9z"/>
	<path class="st6" d="M152.6,285.8c1.7,2.7,3.6,5.3,5.6,7.9c0,0,0,0,0.1,0.1l0,0c0,0,0,0,0,0.1c4,5.2,8.6,10.2,13.8,14.7
		c5.2,4.6,10.7,8.6,16.4,12c1.6,1,3.3,1.9,5,2.8c3.1,1.6,6.2,3.1,9.5,4.5l20.8-39c-2.1-0.8-4.3-1.6-6.3-2.6c-1.5-0.7-3-1.5-4.5-2.4
		c-1.6-0.9-3.1-1.9-4.6-2.9c0,0-0.1,0-0.1-0.1l0,0c0,0-0.1,0-0.1-0.1c-2.2-1.5-4.4-3.2-6.4-5c-4.2-3.8-7.9-7.9-10.9-12.4
		c-0.1-0.1-0.1-0.1-0.1-0.2c-0.3-0.5-0.7-1-1-1.5l-39.9,19.3L152.6,285.8z"/>
	<path class="st7" d="M265.1,290.3l-1,44.1c-1.6,0.3-3.2,0.5-4.8,0.8c-1.2,0.2-2.4,0.3-3.6,0.4c-0.9,0.1-1.8,0.2-2.8,0.2
		c-0.7,0.1-1.3,0.1-2,0.1c-0.6,0.1-1.2,0.1-1.7,0.1c-0.1,0-0.1,0-0.2,0c-0.3,0-0.7,0-1,0c-0.5,0-0.9,0-1.4,0c-0.1,0-0.3,0-0.5,0
		c-0.4,0-0.8,0-1.2,0c-0.4,0-0.8,0-1.2,0c-0.3,0-0.5,0-0.7,0c-1.2,0-2.5-0.1-3.7-0.1c-2.3-0.1-4.5-0.3-6.8-0.5
		c-10.1-1.1-20-3.6-29.5-7.6c-3.2-1.3-6.4-2.8-9.5-4.5c-1.7-0.9-3.3-1.8-5-2.8c-0.8-0.5-1.6-1-2.4-1.5l25-36.3
		c0.6,0.4,1.2,0.7,1.8,1.1c1.5,0.9,3,1.6,4.5,2.4c2.1,1,4.2,1.9,6.3,2.6c2.8,1,5.7,1.8,8.6,2.5c0,0,0,0,0,0c0.7,0.2,1.4,0.3,2.2,0.4
		c2.5,0.5,5.1,0.8,7.6,1c0.1,0,0.2,0,0.2,0c0.6,0,1.2,0.1,1.7,0.1c0.6,0,1.2,0,1.7,0c1.2,0,2.3,0,3.5,0c2.7-0.1,5.4-0.4,8-0.8
		C259.9,291.6,262.5,291,265.1,290.3z"/>
	<path class="st8" d="M298.7,271.8l25.5,29.7c-2.2,2.4-4.5,4.6-6.8,6.7c0,0-0.1,0.1-0.1,0.1l0,0c0,0,0,0,0,0
		c-2.4,2.2-4.9,4.2-7.5,6.1c-1.4,1.1-2.9,2.1-4.4,3.1c0,0,0,0,0,0c-1.3,0.9-2.7,1.8-4.1,2.6c-0.2,0.2-0.5,0.3-0.7,0.4
		c-0.1,0.1-0.2,0.1-0.3,0.2c-11.3,6.7-23.6,11.3-36.2,13.5c-1.6,0.3-3.2,0.5-4.8,0.8c-1.2,0.2-2.4,0.3-3.6,0.4
		c-0.9,0.1-1.8,0.2-2.8,0.2c-0.7,0.1-1.3,0.1-2,0.1c-0.6,0.1-1.2,0.1-1.7,0.1c-0.1,0-0.1,0-0.2,0c-0.3,0-0.7,0-1,0
		c-0.5,0-0.9,0-1.4,0c-0.1,0-0.3,0-0.5,0l-3.8-43.4l-0.1-0.7c2.9,0.2,5.8,0.2,8.6,0.1c2.7-0.1,5.4-0.4,8-0.8c3-0.4,5.9-1.1,8.8-1.9
		c0.9-0.2,1.7-0.5,2.5-0.8c2-0.6,3.9-1.3,5.9-2.1c1.2-0.5,2.4-1,3.6-1.6c0.4-0.2,0.9-0.4,1.3-0.6c4-2,7.8-4.4,11.5-7.1
		c0.1-0.1,0.2-0.1,0.2-0.2c0.6-0.4,1.2-0.9,1.7-1.4C295.9,274.4,297.3,273.1,298.7,271.8z"/>
	<path class="st9" d="M343.6,272.6c-0.4,0.8-0.7,1.5-1.1,2.3c-0.2,0.4-0.4,0.7-0.5,1.1c-0.2,0.5-0.5,1-0.7,1.5
		c-4.1,7.8-9.1,15.2-15.3,22.1c-0.6,0.6-1.1,1.3-1.7,1.9c-2.2,2.4-4.5,4.6-6.8,6.7c0,0-0.1,0.1-0.1,0.1l0,0c0,0,0,0,0,0
		c-2.4,2.2-4.9,4.2-7.5,6.1c-1.4,1.1-2.9,2.1-4.4,3.1c0,0,0,0,0,0c-1.3,0.9-2.7,1.8-4.1,2.6L281,284.3l-0.1-0.1l0-0.1l-0.3-0.5
		c0.1,0,0.1-0.1,0.2-0.1c0.6-0.3,1.2-0.7,1.7-1c5.4-3.2,10.4-7.3,14.7-12.2c3.6-4.1,6.6-8.5,9-13.2c0.2-0.3,0.3-0.6,0.5-1
		c0,0,0-0.1,0-0.1c0,0,0-0.1,0.1-0.1c0.2-0.4,0.3-0.7,0.5-1L343.6,272.6z"/>
	<g>
		<g>
			<path class="st4" d="M179.7,171.9c2.2,0,2.2-3.4,0-3.4C177.5,168.5,177.4,171.9,179.7,171.9L179.7,171.9z"/>
		</g>
	</g>
	<path class="st10" d="M334.9,166.2c1.6,2.5,3.1,4.9,4.6,7.5c0,0,0,0,0,0c0.4,0.7,0.8,1.5,1.2,2.2c1.5,2.8,2.9,5.7,4.2,8.6
		c0.2,0.5,0.4,1,0.6,1.5c4.2,10.2,6.8,21,7.7,31.9c0.1,1,0.2,1.9,0.2,2.9c0,0.1,0,0.2,0,0.2c0,0,0,0.1,0,0.2c0,0.6,0.1,1.2,0.1,1.7
		c0,0.8,0.1,1.7,0.1,2.5c0,0.8,0,1.7,0,2.6c0,0.1,0,0.2,0,0.3c0,0.1,0,0.2,0,0.3l0,0c0,0,0,0.1,0,0.1c0,0.4,0,0.7,0,1.1l-36.3-1.6
		l-2.1-0.1c-0.1-1.3-0.3-2.5-0.5-3.8c0,0,0-0.1,0-0.1c-0.1-0.5-0.2-0.9-0.3-1.4c0-0.3-0.1-0.5-0.2-0.8c0-0.1,0-0.1,0-0.2
		c-0.4-4.6-1.2-9.2-2.5-13.7c-1.3-4.8-3.2-9.5-5.5-14c-0.2-0.5-0.5-1-0.8-1.5l0.3-0.2c-0.6-1.1-1.3-2.2-2-3.3L334.9,166.2z"/>
	<path class="st11" d="M353.1,217.8c0.1,1,0.2,1.9,0.2,2.9c0,0.1,0,0.2,0,0.2c0,0,0,0.1,0,0.2c0,0.6,0.1,1.2,0.1,1.7
		c0,0.8,0.1,1.7,0.1,2.5c0,0.8,0,1.7,0,2.6c0,0.1,0,0.2,0,0.3c0,0.1,0,0.2,0,0.3l0,0c0,0,0,0.1,0,0.1c0,0.4,0,0.7,0,1.1
		c0,0.2,0,0.4,0,0.6c0,0.6,0,1.1-0.1,1.7c0,0.7-0.1,1.4-0.1,2.1c0,0.3,0,0.6-0.1,0.9c-0.1,0.8-0.1,1.6-0.2,2.4c0,0.5-0.1,1-0.1,1.5
		c-0.1,0.5-0.1,1-0.2,1.6c-0.1,0.4-0.1,0.8-0.1,1.1c-0.1,0.6-0.2,1.2-0.3,1.8c-0.1,0.4-0.1,0.7-0.2,1.1c-0.1,0.6-0.2,1.1-0.3,1.7
		c0,0.1,0,0.2,0,0.2c-0.1,0.4-0.1,0.8-0.2,1.2c0,0,0,0.1,0,0.1c-0.2,0.8-0.3,1.6-0.5,2.4c-0.2,0.9-0.4,1.9-0.6,2.8
		c-0.2,0.9-0.5,1.9-0.7,2.8c0,0,0,0,0,0c-0.1,0.5-0.3,0.9-0.4,1.4c-0.1,0.5-0.3,0.9-0.4,1.4c-0.3,0.9-0.6,1.9-0.9,2.8l0,0
		c-0.3,0.8-0.5,1.6-0.8,2.4c-0.1,0.3-0.2,0.6-0.3,0.9c-0.3,0.7-0.5,1.5-0.8,2.2c0,0,0,0,0,0c-0.2,0.5-0.4,0.9-0.5,1.4
		c-0.2,0.5-0.4,0.9-0.6,1.4c-0.3,0.7-0.6,1.5-1,2.2c-0.1,0.1-0.1,0.3-0.2,0.4c-0.1,0.1-0.1,0.3-0.2,0.4c-0.4,0.8-0.7,1.5-1.1,2.3
		c-0.2,0.4-0.4,0.7-0.5,1.1c-0.2,0.5-0.5,1-0.7,1.5l-1.6-1L307.7,258l-1.5-0.9c0.2-0.3,0.3-0.6,0.5-1c0,0,0-0.1,0-0.1
		c0,0,0-0.1,0.1-0.1c0.2-0.3,0.4-0.7,0.5-1c0.1-0.1,0.1-0.2,0.1-0.3c0-0.1,0.1-0.1,0.1-0.2c0.1-0.2,0.2-0.4,0.3-0.5
		c0,0,0-0.1,0.1-0.1c0,0,0,0,0-0.1c0.2-0.4,0.4-0.7,0.5-1.1c0.1-0.3,0.2-0.5,0.3-0.8c0.2-0.4,0.3-0.7,0.5-1.1
		c0.1-0.2,0.2-0.5,0.3-0.7c0.2-0.4,0.3-0.9,0.5-1.3c0.1-0.3,0.2-0.5,0.3-0.8c0.2-0.4,0.3-0.9,0.5-1.3c0-0.1,0.1-0.3,0.1-0.4
		c0-0.1,0.1-0.2,0.1-0.3c0.1-0.4,0.3-0.8,0.4-1.2c0,0,0-0.1,0-0.1c0-0.1,0-0.1,0.1-0.2c0.2-0.6,0.4-1.3,0.5-1.9
		c0.2-0.6,0.3-1.3,0.5-2c0,0,0-0.1,0-0.1c0.1-0.4,0.2-0.7,0.2-1.1c0.1-0.3,0.1-0.6,0.2-0.8c0.2-0.8,0.3-1.7,0.5-2.5
		c0-0.1,0-0.2,0-0.3c0.1-0.4,0.1-0.8,0.2-1.2c0.1-0.4,0.1-0.8,0.2-1.2c0,0,0,0,0-0.1c0-0.3,0.1-0.5,0.1-0.8c0-0.1,0-0.3,0-0.4
		c0.1-0.4,0.1-0.9,0.1-1.3c0-0.1,0-0.2,0-0.4c0-0.7,0.1-1.4,0.1-2c0.1-1.4,0.1-2.7,0.1-4.1l0.1,0l0.2,0l1.3-0.2l36.5-6.1
		L353.1,217.8z"/>
	<path class="st12" d="M314.2,223.3c0,0.3,0,0.6,0,0.9l0.1,0l0.2,0c0,0,0-0.1,0-0.1c-0.1-0.5-0.2-0.9-0.3-1.4c0-0.3-0.1-0.5-0.2-0.8
		C314.1,222.4,314.2,222.9,314.2,223.3z M299.1,132.7c-2.7-1.6-5.4-3-8.1-4.3c-15.4-7.2-32-10.7-48.6-10.3c-1.1,0-2.3,0-3.4,0.1
		c-19.1,1-37.9,6.9-54.3,17.7c0,0,0,0-0.1,0c-0.1,0.1-0.2,0.1-0.3,0.2c-0.2,0.1-0.4,0.2-0.6,0.4c-1.5,1-3,2.1-4.5,3.2
		c-0.1,0.1-0.2,0.1-0.3,0.2c-5.7,4.3-11,9.2-15.9,14.7c-0.7,0.8-1.4,1.6-2.1,2.5l0,0.1c-4.2,5-7.8,10.3-11,15.8c0,0,0,0,0,0
		c-0.6,1.1-1.2,2.1-1.8,3.2l0,0c0,0.1-0.1,0.1-0.1,0.2c0,0.1-0.1,0.1-0.1,0.2c0,0,0,0,0,0c-0.2,0.3-0.3,0.6-0.5,0.9
		c-0.5,0.9-0.9,1.9-1.4,2.8c0,0,0,0.1,0,0.1c-0.4,0.8-0.7,1.6-1.1,2.4c-0.2,0.4-0.3,0.7-0.5,1.1c-0.1,0.2-0.2,0.4-0.3,0.6
		c-0.2,0.5-0.4,1-0.6,1.5c-0.2,0.4-0.3,0.8-0.5,1.2c-0.2,0.5-0.4,1-0.6,1.5c-0.3,0.9-0.7,1.8-1,2.7c-0.2,0.6-0.4,1.2-0.6,1.8
		c-0.2,0.6-0.4,1.2-0.6,1.8c-0.2,0.5-0.3,1.1-0.5,1.6c-0.2,0.7-0.4,1.4-0.6,2.1c-0.3,1.1-0.6,2.2-0.9,3.4c-0.1,0.5-0.3,1.1-0.4,1.6
		c0,0,0,0,0,0c0,0,0,0,0,0.1c-0.2,0.7-0.3,1.4-0.4,2.1c-0.1,0.5-0.2,1.1-0.3,1.6c-0.3,1.3-0.5,2.7-0.7,4c-0.1,0.5-0.1,1-0.2,1.6
		c0,0,0,0.1,0,0.1c-0.1,0.6-0.2,1.2-0.2,1.8c0,0.3-0.1,0.5-0.1,0.8c-0.1,0.8-0.2,1.7-0.2,2.6c-0.1,0.7-0.1,1.5-0.2,2.2
		c0,0.3,0,0.7-0.1,1c0,0.4,0,0.8-0.1,1.2c0,0.5,0,1,0,1.4c0,0,0,0,0,0.1c0,1,0,1.9,0,2.9c0,0.7,0,1.4,0,2.1c0,0.3,0,0.7,0,1
		c0,0.3,0,0.7,0,1c0,0.4,0,0.8,0.1,1.2c0,0.1,0,0.2,0,0.3c0,0.1,0,0.2,0,0.2c0,0.1,0,0.1,0,0.2c0,0.7,0.1,1.5,0.1,2.2
		c1.1,14.6,5.1,28.9,12,42.1c0,0,0,0,0,0.1c0,0,0,0,0,0.1c0,0,0,0,0,0c0.6,1.1,1.2,2.2,1.8,3.3c0.4,0.7,0.8,1.4,1.2,2.1
		c0.6,1,1.2,1.9,1.8,2.9c1.7,2.7,3.6,5.3,5.6,7.9c0,0,0,0,0.1,0.1l0,0c0,0,0,0,0,0.1c4,5.2,8.6,10.2,13.8,14.7
		c4.4,3.9,9.1,7.4,13.9,10.5c0.8,0.5,1.6,1,2.4,1.5c1.6,1,3.3,1.9,5,2.8c3.1,1.6,6.2,3.1,9.5,4.5c9.5,3.9,19.5,6.5,29.5,7.6
		c2.3,0.2,4.5,0.4,6.8,0.5c1.2,0.1,2.5,0.1,3.7,0.1c0.2,0,0.5,0,0.7,0c0.4,0,0.8,0,1.2,0c0.4,0,0.8,0,1.2,0c0.2,0,0.3,0,0.5,0
		c0.5,0,0.9,0,1.4,0c0.3,0,0.7,0,1,0c0.1,0,0.1,0,0.2,0c0.6,0,1.1,0,1.7-0.1c0.7,0,1.3-0.1,2-0.1c0.9-0.1,1.9-0.1,2.8-0.2
		c1.2-0.1,2.4-0.3,3.6-0.4c1.6-0.2,3.2-0.5,4.8-0.8c12.6-2.3,24.9-6.8,36.2-13.5c0.1-0.1,0.2-0.1,0.3-0.2c0.2-0.2,0.5-0.3,0.7-0.4
		c1.4-0.8,2.7-1.7,4.1-2.6c0,0,0,0,0,0c1.5-1,3-2,4.4-3.1c2.6-1.9,5.1-4,7.5-6.1c0,0,0,0,0,0l0,0c0,0,0.1-0.1,0.1-0.1
		c2.4-2.1,4.6-4.3,6.8-6.7c0.6-0.6,1.2-1.2,1.7-1.9c6.1-6.9,11.2-14.3,15.3-22.1c0.2-0.5,0.5-1,0.7-1.5c0.2-0.4,0.4-0.7,0.5-1.1
		c0.4-0.8,0.7-1.5,1.1-2.3c0.1-0.1,0.1-0.3,0.2-0.4c0.1-0.1,0.1-0.3,0.2-0.4c0.3-0.7,0.6-1.5,1-2.2c0.2-0.4,0.4-0.9,0.6-1.4
		c0.2-0.5,0.4-0.9,0.5-1.4c0,0,0,0,0,0c0.3-0.7,0.5-1.5,0.8-2.2c0.1-0.3,0.2-0.6,0.3-0.9c0.3-0.8,0.5-1.6,0.8-2.4l0,0
		c0.3-0.9,0.6-1.8,0.9-2.8c0.1-0.5,0.3-0.9,0.4-1.4c0.1-0.5,0.3-0.9,0.4-1.4c0,0,0,0,0,0c0.3-0.9,0.5-1.9,0.7-2.8
		c0.2-0.9,0.4-1.9,0.6-2.8c0.2-0.8,0.3-1.6,0.5-2.4c0,0,0-0.1,0-0.1c0.1-0.4,0.2-0.8,0.2-1.2c0-0.1,0-0.2,0-0.2
		c0.1-0.6,0.2-1.1,0.3-1.7c0.1-0.4,0.1-0.7,0.2-1.1c0.1-0.6,0.2-1.2,0.3-1.8c0.1-0.4,0.1-0.8,0.1-1.1c0.1-0.5,0.1-1,0.2-1.6
		c0.1-0.5,0.1-1,0.1-1.5c0.1-0.8,0.2-1.6,0.2-2.4c0-0.3,0-0.6,0.1-0.9c0-0.7,0.1-1.4,0.1-2.1c0-0.6,0.1-1.1,0.1-1.7
		c0-0.2,0-0.4,0-0.6c0-0.4,0-0.7,0-1.1c0,0,0-0.1,0-0.1l0,0c0-0.1,0-0.2,0-0.3c0-0.1,0-0.2,0-0.3c0-0.8,0-1.7,0-2.6
		c0-0.9,0-1.7-0.1-2.5c0-0.6,0-1.2-0.1-1.7c0,0,0-0.1,0-0.2c0-0.1,0-0.2,0-0.2c-0.1-1-0.1-1.9-0.2-2.9c-0.9-10.9-3.5-21.7-7.7-31.9
		c-0.2-0.5-0.4-1-0.6-1.5c-1.2-2.9-2.6-5.8-4.1-8.6c-1.2-2.3-2.6-4.6-4-6.9c-5.3-8.4-11.9-16.3-19.8-23.3
		C311.3,140.7,305.3,136.3,299.1,132.7z M303.7,188.9c0.7,1.1,1.4,2.2,2,3.3c0,0.1,0.1,0.2,0.1,0.3c0.2,0.4,0.5,0.9,0.7,1.3
		c2.7,5.2,4.8,10.8,6,16.5c0.9,3.8,1.4,7.7,1.6,11.6c0,0.5,0,0.9,0.1,1.4c0,0.3,0,0.6,0,0.9c0,1.4,0,2.7-0.1,4.1
		c0,0.7-0.1,1.4-0.1,2c0,0.1,0,0.2,0,0.4c0,0.4-0.1,0.9-0.1,1.3c0,0.1,0,0.3,0,0.4c0,0.3-0.1,0.5-0.1,0.8c0,0,0,0,0,0.1
		c-0.1,0.4-0.1,0.8-0.2,1.2c-0.1,0.4-0.1,0.8-0.2,1.2c0,0.1,0,0.2,0,0.3c-0.1,0.9-0.3,1.7-0.5,2.5c-0.1,0.3-0.1,0.6-0.2,0.8
		c-0.1,0.4-0.2,0.7-0.2,1.1c0,0,0,0.1,0,0.1c-0.1,0.7-0.3,1.3-0.5,2c-0.2,0.6-0.3,1.3-0.5,1.9c0,0.1,0,0.1-0.1,0.2c0,0,0,0.1,0,0.1
		c-0.1,0.4-0.2,0.8-0.4,1.2c0,0.1-0.1,0.2-0.1,0.3c0,0.1-0.1,0.3-0.1,0.4c-0.2,0.4-0.3,0.9-0.5,1.3c-0.1,0.2-0.2,0.5-0.3,0.8
		c-0.2,0.4-0.3,0.8-0.5,1.3c-0.1,0.2-0.2,0.5-0.3,0.7c-0.1,0.4-0.3,0.8-0.5,1.1c-0.1,0.3-0.2,0.5-0.3,0.8c-0.2,0.4-0.3,0.8-0.5,1.1
		c0,0,0,0,0,0.1c0,0,0,0.1-0.1,0.1c-0.1,0.2-0.2,0.4-0.3,0.5c0,0.1-0.1,0.1-0.1,0.2c0,0.1-0.1,0.2-0.1,0.3c-0.2,0.3-0.3,0.7-0.5,1
		c0,0,0,0.1-0.1,0.1c0,0,0,0.1,0,0.1c-0.2,0.3-0.3,0.6-0.5,1c-2.4,4.6-5.5,9-9.1,13.1c-3.1,3.5-6.6,6.7-10.3,9.4
		c-1.4,1-2.8,2-4.3,2.9c-0.6,0.3-1.1,0.7-1.7,1c-0.1,0-0.1,0.1-0.2,0.1c-3.4,2-6.9,3.6-10.5,4.9c-0.6,0.2-1.1,0.4-1.7,0.6
		c-1.1,0.4-2.3,0.7-3.4,1.1c-2.6,0.7-5.2,1.3-7.8,1.7c-2.7,0.4-5.3,0.7-8,0.8c-1.2,0-2.3,0.1-3.5,0c-0.6,0-1.2,0-1.7,0
		c-0.6,0-1.2-0.1-1.7-0.1c-0.1,0-0.2,0-0.2,0c-2.6-0.2-5.1-0.5-7.6-1c-0.7-0.1-1.5-0.3-2.2-0.4c0,0,0,0,0,0
		c-2.9-0.6-5.8-1.4-8.6-2.5c-2.1-0.8-4.3-1.6-6.3-2.6c-1.5-0.7-3-1.5-4.5-2.4c-0.6-0.4-1.2-0.7-1.8-1.1c-0.9-0.6-1.9-1.2-2.8-1.8
		c0,0-0.1,0-0.1-0.1l0,0c0,0-0.1,0-0.1-0.1c-2.2-1.5-4.4-3.2-6.4-5c-4.2-3.8-7.9-7.9-10.9-12.4c-0.1-0.1-0.1-0.1-0.1-0.2
		c-0.3-0.5-0.7-1-1-1.5c-5.3-8.2-8.6-17.4-9.9-26.8c-0.2-1.3-0.3-2.6-0.4-3.9c-0.1-0.9-0.1-1.8-0.2-2.7c0-0.8-0.1-1.6-0.1-2.5
		c0-1,0-2,0-3c0-0.6,0-1.2,0.1-1.8c0-0.3,0-0.7,0.1-1c0-0.3,0-0.6,0.1-1c0.1-0.6,0.1-1.2,0.2-1.9c0.1-0.6,0.2-1.2,0.3-1.9
		c0.3-1.9,0.6-3.7,1.1-5.6c0.3-1.2,0.6-2.4,0.9-3.6c0.2-0.8,0.5-1.6,0.8-2.4c0.1-0.4,0.2-0.8,0.4-1.1c0.4-1.1,0.8-2.1,1.2-3.1
		c0.1-0.2,0.1-0.3,0.2-0.5c0.2-0.5,0.4-0.9,0.6-1.4c0.5-1.2,1.1-2.4,1.7-3.5c2-3.9,4.5-7.7,7.4-11.2c0.2-0.3,0.4-0.6,0.7-0.8
		c0.2-0.3,0.4-0.5,0.6-0.7c0.3-0.3,0.5-0.6,0.8-0.9c2-2.2,4-4.2,6.2-6.1c1.7-1.4,3.4-2.8,5.1-4c8.4-6,17.9-9.8,27.7-11.5
		c1.7-0.3,3.4-0.5,5.1-0.7c10.9-1,22,0.5,32.4,4.8c1.1,0.5,2.3,1,3.4,1.5c5.5,2.7,10.8,6.1,15.6,10.4
		C296.3,179,300.4,183.7,303.7,188.9z M314.2,223.3c0,0.3,0,0.6,0,0.9l0.1,0l0.2,0c0,0,0-0.1,0-0.1c-0.1-0.5-0.2-0.9-0.3-1.4
		c0-0.3-0.1-0.5-0.2-0.8C314.1,222.4,314.2,222.9,314.2,223.3z"/>
</g>
<path class="st13" d="M433.8,449.9H55.1c-27.6,0-50-22.4-50-50V54.4c0-27.6,22.4-50,50-50h378.8c27.6,0,50,22.4,50,50v345.5
	C483.8,427.5,461.5,449.9,433.8,449.9z"/>
<g>
	<g>
		<path class="st14" d="M153.4,236v-4.9l5.6-5.7c1.2-1.2,2.2-2.3,3-3.2c0.8-0.9,1.5-1.7,1.9-2.5c0.4-0.8,0.7-1.6,0.7-2.5
			c0-1.2-0.3-2-1-2.5c-0.7-0.4-1.8-0.6-3.4-0.6c-0.6,0-1.4,0-2.2,0.1c-0.8,0.1-1.6,0.2-2.3,0.3c-0.7,0.1-1.4,0.2-1.9,0.3l-0.3-4.9
			c0.6-0.2,1.3-0.4,2.2-0.6c0.9-0.2,1.9-0.4,2.9-0.5c1.1-0.1,2.1-0.2,3.1-0.2c3,0,5.3,0.6,6.8,1.9s2.4,3.2,2.4,5.8
			c0,1.4-0.2,2.7-0.6,3.8c-0.4,1.1-1,2.1-1.8,3.1c-0.8,1-1.9,2-3.3,3.2l-4.8,4.5h10.7v5.1H153.4z"/>
		<path class="st14" d="M175.9,236v-27.6h10.8c2.2,0,4,0.3,5.6,0.9c1.5,0.6,2.8,1.5,3.7,2.6c0.9,1.1,1.6,2.5,2,4.2
			c0.4,1.7,0.6,3.6,0.6,5.7c0,2.1-0.2,4.1-0.6,5.8c-0.4,1.7-1,3.2-1.9,4.5c-0.9,1.3-2.1,2.2-3.6,2.9c-1.5,0.7-3.4,1-5.6,1H175.9z
			 M182.3,230.6h4.2c1.2,0,2.2-0.2,2.9-0.7c0.7-0.4,1.3-1.1,1.7-1.9c0.4-0.8,0.6-1.7,0.8-2.8c0.1-1.1,0.2-2.2,0.2-3.5
			c0-1.2-0.1-2.4-0.2-3.3c-0.1-1-0.4-1.8-0.8-2.5c-0.4-0.7-1-1.3-1.7-1.6c-0.7-0.4-1.7-0.6-2.8-0.6h-4.2V230.6z"/>
		<path class="st14" d="M201.9,227.9v-5.2h12.2v5.2H201.9z"/>
		<path class="st14" d="M218.2,236v-27.6H229c2.2,0,4,0.3,5.6,0.9c1.5,0.6,2.8,1.5,3.7,2.6c0.9,1.1,1.6,2.5,2,4.2
			c0.4,1.7,0.6,3.6,0.6,5.7c0,2.1-0.2,4.1-0.6,5.8c-0.4,1.7-1,3.2-1.9,4.5c-0.9,1.3-2.1,2.2-3.6,2.9c-1.5,0.7-3.4,1-5.6,1H218.2z
			 M224.7,230.6h4.2c1.2,0,2.2-0.2,2.9-0.7c0.7-0.4,1.3-1.1,1.7-1.9c0.4-0.8,0.6-1.7,0.8-2.8c0.1-1.1,0.2-2.2,0.2-3.5
			c0-1.2-0.1-2.4-0.2-3.3c-0.1-1-0.4-1.8-0.8-2.5c-0.4-0.7-1-1.3-1.7-1.6c-0.7-0.4-1.7-0.6-2.8-0.6h-4.2V230.6z"/>
		<path class="st14" d="M252.9,236.5c-2.3,0-4.1-0.4-5.5-1.1c-1.4-0.8-2.3-1.9-2.9-3.4c-0.6-1.5-0.9-3.5-0.9-5.8
			c0-2.5,0.4-4.5,1.1-6.1c0.7-1.6,1.8-2.8,3.2-3.6c1.4-0.8,3.2-1.2,5.3-1.2c3.1,0,5.5,0.8,7.1,2.3c1.6,1.5,2.4,3.9,2.4,7.2l-0.3,3.2
			h-12.5c0,1.3,0.3,2.3,0.8,2.9s1.4,1,2.7,1c0.8,0,1.8,0,2.8-0.1c1,0,2.1-0.1,3.1-0.1c1-0.1,1.9-0.1,2.6-0.2l0.1,4.2
			c-0.7,0.1-1.6,0.3-2.6,0.4c-1.1,0.1-2.1,0.3-3.3,0.4C255,236.4,253.9,236.5,252.9,236.5z M249.8,224h6.7c0-1.6-0.3-2.8-0.8-3.4
			c-0.5-0.6-1.3-1-2.5-1s-2,0.3-2.5,1C250.1,221.3,249.8,222.5,249.8,224z"/>
		<path class="st14" d="M273.4,236.5c-1,0-2-0.1-3.1-0.2c-1.1-0.1-2-0.2-2.9-0.4c-0.9-0.1-1.6-0.3-2.2-0.4l0.2-4.5
			c0.7,0.1,1.5,0.2,2.4,0.3c0.9,0.1,1.8,0.2,2.6,0.3s1.6,0.1,2.1,0.1c0.7,0,1.3-0.1,1.8-0.2s0.8-0.3,1-0.6c0.2-0.3,0.3-0.6,0.3-1.1
			c0-0.4-0.1-0.6-0.3-0.9c-0.2-0.2-0.6-0.4-1.2-0.5c-0.6-0.1-1.4-0.3-2.6-0.5c-1.5-0.2-2.8-0.5-3.7-1c-1-0.4-1.7-1-2.1-1.9
			c-0.4-0.8-0.7-1.9-0.7-3.3c0-1.8,0.4-3.1,1.1-4.1c0.7-1,1.7-1.7,3-2c1.2-0.4,2.6-0.6,4.1-0.6c1,0,2.1,0,3.1,0.1s2,0.2,2.9,0.3
			s1.6,0.3,2.2,0.4l-0.2,4.6c-0.7-0.1-1.5-0.2-2.4-0.3c-0.9-0.1-1.8-0.2-2.7-0.2c-0.9-0.1-1.6-0.1-2.2-0.1c-0.6,0-1.1,0-1.5,0.1
			s-0.7,0.3-1,0.5c-0.2,0.2-0.3,0.6-0.3,1c0,0.3,0.1,0.6,0.3,0.8c0.2,0.2,0.6,0.4,1.1,0.5c0.6,0.1,1.4,0.3,2.5,0.4
			c1.6,0.2,3,0.6,4,1c1,0.5,1.7,1.1,2.2,1.9c0.4,0.8,0.6,1.9,0.6,3.3c0,2.5-0.7,4.2-2.2,5.3C278.3,236,276.2,236.5,273.4,236.5z"/>
		<path class="st14" d="M285.1,212.8v-4.9h6.2v4.9H285.1z M285.1,236v-20.4h6.2V236H285.1z"/>
		<path class="st14" d="M304.6,245.2c-2.2,0-4-0.2-5.5-0.5c-1.5-0.3-2.7-0.9-3.4-1.7c-0.8-0.8-1.2-2.1-1.2-3.7
			c0-0.7,0.1-1.3,0.3-1.9s0.5-1.1,0.9-1.6c0.4-0.5,1-1,1.7-1.5c-0.4-0.3-0.7-0.7-0.9-1.2c-0.2-0.5-0.4-1.1-0.4-1.7
			c0-0.3,0.2-0.8,0.6-1.4c0.4-0.6,0.8-1.2,1.3-1.6c-0.5-0.3-1.1-0.6-1.5-1.1c-0.5-0.5-0.9-1.1-1.2-1.9c-0.3-0.8-0.5-1.8-0.5-3.1
			c0-2.6,0.7-4.5,2.2-5.5c1.5-1.1,3.7-1.6,6.6-1.6c0.7,0,1.4,0,2.3,0.1s1.5,0.2,2,0.3l6.8-0.2v4.1l-2.8,0c0.2,0.3,0.4,0.7,0.6,1.1
			c0.2,0.5,0.2,1,0.2,1.7c0,1.9-0.3,3.4-1,4.4c-0.6,1-1.6,1.7-2.9,2.1s-3,0.6-5,0.6c-0.2,0-0.5,0-0.9-0.1c-0.4,0-0.6-0.1-0.9-0.1
			c-0.1,0.2-0.2,0.5-0.3,0.8c-0.1,0.3-0.2,0.5-0.2,0.6c0,0.3,0.1,0.5,0.4,0.7s0.7,0.3,1.5,0.3c0.7,0.1,1.8,0.1,3.3,0.1
			c1.9,0,3.4,0.2,4.6,0.5s1.9,1,2.4,1.9c0.5,0.9,0.7,2.2,0.7,3.8c0,2.4-0.9,4.3-2.6,5.5C310.1,244.6,307.7,245.2,304.6,245.2z
			 M304.3,240.7c1.6,0,2.7-0.2,3.4-0.5s1-0.9,1-1.6c0-0.6-0.1-1-0.4-1.3c-0.2-0.3-0.6-0.5-1.2-0.5c-0.6-0.1-1.3-0.1-2.3-0.1
			c-0.3,0-0.6,0-1,0c-0.4,0-0.7,0-1.1,0c-0.4,0-0.7,0-1,0s-0.5,0-0.6-0.1c-0.5,0.4-0.9,0.7-1,1c-0.2,0.3-0.3,0.7-0.3,1.2
			c0,0.5,0.1,0.9,0.4,1.2c0.3,0.3,0.8,0.5,1.4,0.6C302.3,240.6,303.2,240.7,304.3,240.7z M303.7,225.1c1.1,0,1.9-0.2,2.3-0.7
			c0.5-0.4,0.7-1.2,0.7-2.2c0-1-0.2-1.8-0.7-2.2c-0.5-0.4-1.3-0.7-2.3-0.7c-1.1,0-1.8,0.2-2.3,0.7c-0.5,0.4-0.7,1.2-0.7,2.2
			c0,1,0.2,1.8,0.7,2.2C301.9,224.9,302.6,225.1,303.7,225.1z"/>
		<path class="st14" d="M317.2,236v-20.4h6.2v1.3c0.4-0.3,0.9-0.5,1.5-0.8c0.6-0.3,1.2-0.5,1.9-0.6c0.7-0.2,1.3-0.3,1.9-0.3
			c1.9,0,3.4,0.3,4.5,1c1.1,0.7,1.8,1.8,2.3,3.3c0.4,1.5,0.7,3.5,0.7,6.1V236h-6.2v-10.1c0-1.3-0.1-2.3-0.2-3.1
			c-0.2-0.8-0.4-1.4-0.9-1.7c-0.4-0.4-1-0.5-1.7-0.5c-0.4,0-0.9,0-1.3,0.1s-0.9,0.2-1.3,0.3c-0.4,0.1-0.7,0.3-1,0.4V236H317.2z"/>
	</g>
</g>
</svg>
