<?xml version="1.0" encoding="utf-8"?>
<!-- Generator: Adobe Illustrator 27.1.1, SVG Export Plug-In . SVG Version: 6.00 Build 0)  -->
<svg version="1.1" id="Layer_1" xmlns="http://www.w3.org/2000/svg" xmlns:xlink="http://www.w3.org/1999/xlink" x="0px" y="0px"
	 viewBox="0 0 489 455" style="enable-background:new 0 0 489 455;" xml:space="preserve">
<style type="text/css">
	.st0{fill:#9180EE;}
	.st1{fill:#F9F1B3;}
	.st2{opacity:0.6;fill:#9180EE;}
	.st3{fill:#FFFFFF;}
</style>
<g>
	<g>
		<g>
			<path class="st0" d="M348.8,180.8l-141,112.6l-3.7,3c-0.9,1-2.1,1.9-3.4,2.6c-3.4,2.3-7.1,3.6-11,4.1l-21.4,7.8l-16.6,6.1
				c-10.4,3.8-19.1-6.4-13.3-15.6l9.3-14.6l12.4-19.5c1.1-2.8,2.8-5.5,5-7.8c1.3-2,3.1-3.4,5.1-4.4l1.7-1.3L314.1,140
				c6.6-5.3,16.5-4.4,22,2l14.9,17.5C356.4,165.9,355.4,175.5,348.8,180.8z"/>
		</g>
		<g>
			<path class="st1" d="M350.1,179.5l-10.1,8.1l-35.3-40.3l10.7-8.5c6.6-5.3,16.5-4.4,22,2l14.9,17.5
				C357.7,164.7,356.7,174.2,350.1,179.5z"/>
		</g>
		<g>
			<path class="st1" d="M207.9,293.4l-3.7,3c-0.9,1-2.1,1.9-3.4,2.6c-3.4,2.3-7.1,3.6-11,4.1l-21.4,7.8l-16.6,6.1
				c-10.4,3.8-19.1-6.4-13.3-15.6l9.3-14.6l12.4-19.5c1.1-2.8,2.8-5.5,5-7.8c1.3-2,3.1-3.4,5.1-4.4l1.7-1.3l1.4,2.2l2.1,0.2
				c4.3,0.4,7.9,3.4,9.3,7.8l1.7,5.2l4.5,1.9c3.4,1.4,5.7,4.7,6.1,8.6l0.7,6.6l2.1,0.3C203.6,286.9,206.7,289.7,207.9,293.4z"/>
		</g>
	</g>
	<g>
		<path d="M137,319.8c-1.1,0-2.4-0.8-3.2-2c-0.7-1.1-0.9-2.2-0.5-3.1l4.5-10.6c0.3-0.7,0.9-1.1,1.8-1.1c1,0,2.1,0.6,2.9,1.5l6.7,8.2
			c0.9,1.1,1.2,2.4,0.9,3.4c-0.2,0.6-0.7,1.1-1.3,1.2l-11.2,2.4C137.3,319.8,137.2,319.8,137,319.8z"/>
		<path d="M139.6,303.1L139.6,303.1c1,0,2,0.6,2.8,1.5l3.4,4.1l3.4,4.1c0.9,1.1,1.2,2.4,0.9,3.3c-0.1,0.4-0.5,1-1.3,1.1l-7.3,1.6
			l-3.9,0.8c-0.2,0-0.3,0.1-0.5,0.1c-1.1,0-2.3-0.8-3.1-1.9c-0.7-1-0.9-2.2-0.5-3l1.6-3.7l2.9-6.9
			C138.2,303.4,138.8,303.1,139.6,303.1 M139.6,302.9c-0.8,0-1.5,0.4-1.9,1.2l-2.9,6.9l-1.6,3.7c-0.9,2.2,1.5,5.3,3.8,5.3
			c0.2,0,0.3,0,0.5-0.1l3.9-0.8l7.3-1.6c1.8-0.4,2.1-2.9,0.5-4.8l-3.4-4.1l-3.4-4.1C141.7,303.4,140.6,302.9,139.6,302.9
			L139.6,302.9z"/>
	</g>
</g>
<path class="st2" d="M434.3,449.9H55.6c-27.6,0-50-22.4-50-50V54.4c0-27.6,22.4-50,50-50h378.8c27.6,0,50,22.4,50,50v345.5
	C484.3,427.5,462,449.9,434.3,449.9z"/>
<g>
	<g>
		<path class="st3" d="M150,212.8v-4.9h6.2v4.9H150z M150,236v-20.4h6.2V236H150z"/>
		<path class="st3" d="M160.3,236v-28.5h6.2V236H160.3z"/>
		<path class="st3" d="M170.7,236v-28.5h6.2V236H170.7z"/>
		<path class="st3" d="M187.6,236.5c-1.8,0-3.1-0.4-4.1-1.2c-1-0.8-1.7-1.9-2.1-3.4c-0.4-1.5-0.6-3.4-0.6-5.7v-10.6h6.2v10.3
			c0,1.3,0.1,2.3,0.2,3.1s0.4,1.3,0.8,1.6c0.4,0.3,1,0.5,1.7,0.5c0.7,0,1.4-0.1,2-0.3s1.2-0.4,1.5-0.5v-14.6h6.2V236h-6.2v-1.2
			c-0.9,0.5-1.8,0.9-2.7,1.2C189.8,236.3,188.8,236.5,187.6,236.5z"/>
		<path class="st3" d="M211.2,236.5c-1,0-2-0.1-3.1-0.2c-1.1-0.1-2-0.2-2.9-0.4c-0.9-0.1-1.6-0.3-2.2-0.4l0.2-4.5
			c0.7,0.1,1.5,0.2,2.4,0.3c0.9,0.1,1.8,0.2,2.6,0.3c0.9,0.1,1.6,0.1,2.1,0.1c0.7,0,1.3-0.1,1.8-0.2c0.5-0.1,0.8-0.3,1-0.6
			c0.2-0.3,0.3-0.6,0.3-1.1c0-0.4-0.1-0.6-0.3-0.9c-0.2-0.2-0.6-0.4-1.2-0.5c-0.6-0.1-1.4-0.3-2.6-0.5c-1.5-0.2-2.8-0.5-3.7-1
			c-1-0.4-1.7-1-2.1-1.9c-0.4-0.8-0.7-1.9-0.7-3.3c0-1.8,0.4-3.1,1.1-4.1c0.7-1,1.7-1.7,3-2c1.2-0.4,2.6-0.6,4.1-0.6
			c1,0,2.1,0,3.1,0.1c1,0.1,2,0.2,2.9,0.3c0.9,0.1,1.6,0.3,2.2,0.4l-0.2,4.6c-0.7-0.1-1.5-0.2-2.4-0.3c-0.9-0.1-1.8-0.2-2.7-0.2
			c-0.9-0.1-1.6-0.1-2.2-0.1c-0.6,0-1.1,0-1.5,0.1c-0.4,0.1-0.7,0.3-1,0.5c-0.2,0.2-0.3,0.6-0.3,1c0,0.3,0.1,0.6,0.3,0.8
			c0.2,0.2,0.6,0.4,1.1,0.5c0.6,0.1,1.4,0.3,2.5,0.4c1.6,0.2,3,0.6,4,1c1,0.5,1.7,1.1,2.1,1.9c0.4,0.8,0.6,1.9,0.6,3.3
			c0,2.5-0.7,4.2-2.2,5.3C216,236,213.9,236.5,211.2,236.5z"/>
		<path class="st3" d="M230.2,236.5c-1.5,0-2.7-0.2-3.7-0.6c-0.9-0.4-1.6-1.2-2-2.2c-0.4-1.1-0.6-2.6-0.6-4.5v-8.4h-2.2v-5.1h2.2
			v-5.1h6.2v5.1h4.8v5.1H230v6.9c0,0.9,0,1.6,0.1,2.1c0.1,0.5,0.3,0.9,0.6,1.1c0.3,0.2,0.7,0.3,1.3,0.3c0.2,0,0.4,0,0.8,0
			c0.4,0,0.7,0,1.1-0.1c0.4,0,0.6,0,0.8-0.1l0.2,4.9c-0.7,0.1-1.5,0.3-2.4,0.4C231.6,236.4,230.8,236.5,230.2,236.5z"/>
		<path class="st3" d="M237.5,236v-20.4h6.2v2.3c0.4-0.4,1-0.7,1.6-1.1c0.6-0.4,1.3-0.8,2.1-1.1c0.7-0.3,1.4-0.5,2.1-0.6v5.9
			c-0.6,0.1-1.3,0.2-2.1,0.5c-0.7,0.2-1.4,0.5-2.1,0.8c-0.6,0.3-1.2,0.5-1.7,0.8V236H237.5z"/>
		<path class="st3" d="M257.7,236.5c-2.2,0-3.9-0.5-5-1.6c-1.1-1.1-1.6-2.7-1.6-4.9c0-1.6,0.3-2.8,0.9-3.6c0.6-0.9,1.4-1.5,2.5-1.8
			c1.1-0.4,2.4-0.6,4-0.7l4.5-0.4v-1.1c0-0.8-0.2-1.4-0.7-1.7c-0.4-0.3-1.1-0.5-2-0.5c-0.8,0-1.7,0-2.7,0.1c-1,0.1-2,0.1-3,0.2
			c-1,0.1-1.8,0.2-2.5,0.2l-0.2-4.3c0.7-0.2,1.6-0.4,2.6-0.5c1-0.2,2.1-0.3,3.2-0.4c1.1-0.1,2.1-0.2,3.1-0.2c1.8,0,3.3,0.2,4.5,0.6
			c1.2,0.4,2.2,1.1,2.8,2.1c0.6,1,1,2.4,1,4.1v8.9c0.1,0.3,0.3,0.6,0.6,0.8c0.3,0.2,0.7,0.3,1,0.4l-0.1,4.1c-0.6,0.1-1.3,0.1-2,0.1
			c-0.7,0-1.2,0-1.6,0c-0.7-0.1-1.3-0.2-1.8-0.5c-0.5-0.3-0.9-0.5-1.1-0.8c-0.4,0.2-1,0.4-1.7,0.6s-1.5,0.4-2.3,0.6
			C259.4,236.4,258.6,236.5,257.7,236.5z M259.2,232c0.5,0,0.9-0.1,1.4-0.2c0.5-0.1,0.9-0.2,1.4-0.4c0.4-0.1,0.8-0.3,1.1-0.4v-4
			l-3.6,0.3c-0.8,0.1-1.3,0.3-1.7,0.7c-0.4,0.4-0.5,0.9-0.5,1.6c0,0.7,0.2,1.2,0.5,1.6S258.6,232,259.2,232z"/>
		<path class="st3" d="M280.8,236.5c-1.5,0-2.7-0.2-3.7-0.6c-0.9-0.4-1.6-1.2-2-2.2c-0.4-1.1-0.6-2.6-0.6-4.5v-8.4h-2.2v-5.1h2.2
			v-5.1h6.2v5.1h4.8v5.1h-4.8v6.9c0,0.9,0,1.6,0.1,2.1c0.1,0.5,0.3,0.9,0.6,1.1c0.3,0.2,0.7,0.3,1.3,0.3c0.2,0,0.4,0,0.8,0
			c0.4,0,0.7,0,1.1-0.1s0.6,0,0.8-0.1l0.2,4.9c-0.7,0.1-1.5,0.3-2.4,0.4C282.2,236.4,281.5,236.5,280.8,236.5z"/>
		<path class="st3" d="M288.2,212.8v-4.9h6.2v4.9H288.2z M288.2,236v-20.4h6.2V236H288.2z"/>
		<path class="st3" d="M307.5,236.5c-2.3,0-4.2-0.4-5.6-1.1s-2.5-1.9-3.2-3.5c-0.7-1.6-1-3.7-1-6.2c0-2.5,0.3-4.5,1-6
			c0.7-1.5,1.8-2.7,3.2-3.4s3.3-1.1,5.5-1.1c2.3,0,4.1,0.4,5.6,1.1c1.4,0.7,2.5,1.9,3.2,3.4c0.7,1.5,1,3.6,1,6c0,2.5-0.3,4.6-1,6.2
			c-0.7,1.6-1.7,2.8-3.2,3.5C311.7,236.1,309.8,236.5,307.5,236.5z M307.5,231.4c1,0,1.8-0.2,2.3-0.6c0.5-0.4,0.8-1,1-1.8
			s0.3-1.9,0.3-3.3c0-1.4-0.1-2.5-0.3-3.2c-0.2-0.8-0.6-1.4-1.1-1.7c-0.5-0.4-1.2-0.5-2.1-0.5c-0.9,0-1.6,0.2-2.1,0.5
			c-0.5,0.4-0.9,0.9-1.1,1.7c-0.2,0.8-0.3,1.9-0.3,3.2c0,1.4,0.1,2.4,0.3,3.3s0.5,1.4,1,1.8S306.5,231.4,307.5,231.4z"/>
		<path class="st3" d="M320.6,236v-20.4h6.2v1.3c0.4-0.3,0.9-0.5,1.5-0.8c0.6-0.3,1.2-0.5,1.9-0.6c0.7-0.2,1.3-0.3,1.9-0.3
			c1.9,0,3.4,0.3,4.5,1c1.1,0.7,1.8,1.8,2.3,3.3c0.4,1.5,0.7,3.5,0.7,6.1V236h-6.2v-10.1c0-1.3-0.1-2.3-0.2-3.1
			c-0.2-0.8-0.4-1.4-0.9-1.7c-0.4-0.4-1-0.5-1.7-0.5c-0.4,0-0.9,0-1.3,0.1c-0.5,0.1-0.9,0.2-1.3,0.3c-0.4,0.1-0.7,0.3-1,0.4V236
			H320.6z"/>
	</g>
</g>
</svg>
