<?xml version="1.0" encoding="utf-8"?>
<!-- Generator: Adobe Illustrator 27.1.1, SVG Export Plug-In . SVG Version: 6.00 Build 0)  -->
<svg version="1.1" id="Layer_1" xmlns="http://www.w3.org/2000/svg" xmlns:xlink="http://www.w3.org/1999/xlink" x="0px" y="0px"
	 viewBox="0 0 489 455" style="enable-background:new 0 0 489 455;" xml:space="preserve">
<style type="text/css">
	.st0{fill:#9180EE;}
	.st1{opacity:0.6;fill:#9180EE;}
	.st2{fill:#FFFFFF;}
</style>
<g>
	<circle class="st0" cx="244.5" cy="227.1" r="105.5"/>
</g>
<path class="st1" d="M433.8,449.9H55.1c-27.6,0-50-22.4-50-50V54.4c0-27.6,22.4-50,50-50h378.8c27.6,0,50,22.4,50,50v345.5
	C483.8,427.5,461.5,449.9,433.8,449.9z"/>
<g>
	<g>
		<path class="st2" d="M172.6,236v-27.6h10.8c2.2,0,4,0.3,5.6,0.9c1.5,0.6,2.8,1.5,3.7,2.6c0.9,1.1,1.6,2.5,2,4.2
			c0.4,1.7,0.6,3.6,0.6,5.7c0,2.1-0.2,4.1-0.6,5.8c-0.4,1.7-1,3.2-1.9,4.5c-0.9,1.3-2.1,2.2-3.6,2.9c-1.5,0.7-3.4,1-5.6,1H172.6z
			 M179,230.6h4.2c1.2,0,2.2-0.2,2.9-0.7c0.7-0.4,1.3-1.1,1.7-1.9c0.4-0.8,0.6-1.7,0.8-2.8c0.1-1.1,0.2-2.2,0.2-3.5
			c0-1.2-0.1-2.4-0.2-3.3c-0.1-1-0.4-1.8-0.8-2.5c-0.4-0.7-1-1.3-1.7-1.6c-0.7-0.4-1.7-0.6-2.8-0.6H179V230.6z"/>
		<path class="st2" d="M198.7,236v-20.4h6.2v2.3c0.4-0.4,1-0.7,1.6-1.1c0.6-0.4,1.3-0.8,2.1-1.1c0.7-0.3,1.4-0.5,2.1-0.6v5.9
			c-0.6,0.1-1.3,0.2-2.1,0.5c-0.7,0.2-1.4,0.5-2.1,0.8c-0.6,0.3-1.2,0.5-1.7,0.8V236H198.7z"/>
		<path class="st2" d="M218.8,236.5c-2.2,0-3.9-0.5-5-1.6c-1.1-1.1-1.6-2.7-1.6-4.9c0-1.6,0.3-2.8,0.9-3.6c0.6-0.9,1.4-1.5,2.5-1.8
			c1.1-0.4,2.4-0.6,4-0.7l4.5-0.4v-1.1c0-0.8-0.2-1.4-0.7-1.7c-0.4-0.3-1.1-0.5-2-0.5c-0.8,0-1.7,0-2.7,0.1c-1,0.1-2,0.1-3,0.2
			c-1,0.1-1.8,0.2-2.5,0.2l-0.2-4.3c0.7-0.2,1.6-0.4,2.6-0.5c1-0.2,2.1-0.3,3.2-0.4c1.1-0.1,2.1-0.2,3.1-0.2c1.8,0,3.3,0.2,4.5,0.6
			c1.2,0.4,2.2,1.1,2.8,2.1c0.6,1,1,2.4,1,4.1v8.9c0.1,0.3,0.3,0.6,0.6,0.8c0.3,0.2,0.7,0.3,1,0.4l-0.1,4.1c-0.6,0.1-1.3,0.1-2,0.1
			c-0.7,0-1.2,0-1.6,0c-0.7-0.1-1.3-0.2-1.8-0.5c-0.5-0.3-0.9-0.5-1.1-0.8c-0.4,0.2-1,0.4-1.7,0.6s-1.5,0.4-2.3,0.6
			C220.5,236.4,219.7,236.5,218.8,236.5z M220.4,232c0.5,0,0.9-0.1,1.4-0.2c0.5-0.1,0.9-0.2,1.4-0.4c0.4-0.1,0.8-0.3,1.1-0.4v-4
			l-3.6,0.3c-0.8,0.1-1.3,0.3-1.7,0.7c-0.4,0.4-0.5,0.9-0.5,1.6c0,0.7,0.2,1.2,0.5,1.6C219.2,231.8,219.7,232,220.4,232z"/>
		<path class="st2" d="M237.1,236l-3.6-20.4h6.7l2.1,15.2h0.6l2.8-14.7h5.8l3,14.7h0.6l2.2-15.2h6.1L260,236h-9.2l-2.4-12.2L246,236
			H237.1z"/>
		<path class="st2" d="M266.2,212.8v-4.9h6.2v4.9H266.2z M266.2,236v-20.4h6.2V236H266.2z"/>
		<path class="st2" d="M276.4,236v-20.4h6.2v1.3c0.4-0.3,0.9-0.5,1.5-0.8c0.6-0.3,1.2-0.5,1.9-0.6c0.7-0.2,1.3-0.3,1.9-0.3
			c1.9,0,3.4,0.3,4.5,1c1.1,0.7,1.8,1.8,2.3,3.3c0.4,1.5,0.7,3.5,0.7,6.1V236h-6.2v-10.1c0-1.3-0.1-2.3-0.2-3.1
			c-0.2-0.8-0.4-1.4-0.9-1.7c-0.4-0.4-1-0.5-1.7-0.5c-0.4,0-0.9,0-1.3,0.1s-0.9,0.2-1.3,0.3c-0.4,0.1-0.7,0.3-1,0.4V236H276.4z"/>
		<path class="st2" d="M308.4,245.2c-2.2,0-4-0.2-5.5-0.5s-2.7-0.9-3.4-1.7c-0.8-0.8-1.2-2.1-1.2-3.7c0-0.7,0.1-1.3,0.3-1.9
			c0.2-0.5,0.5-1.1,0.9-1.6s1-1,1.7-1.5c-0.4-0.3-0.7-0.7-0.9-1.2s-0.4-1.1-0.4-1.7c0-0.3,0.2-0.8,0.6-1.4c0.4-0.6,0.8-1.2,1.3-1.6
			c-0.5-0.3-1.1-0.6-1.5-1.1c-0.5-0.5-0.9-1.1-1.2-1.9c-0.3-0.8-0.5-1.8-0.5-3.1c0-2.6,0.7-4.5,2.2-5.5c1.5-1.1,3.7-1.6,6.6-1.6
			c0.7,0,1.4,0,2.3,0.1c0.8,0.1,1.5,0.2,2,0.3l6.8-0.2v4.1l-2.8,0c0.2,0.3,0.4,0.7,0.6,1.1c0.2,0.5,0.2,1,0.2,1.7
			c0,1.9-0.3,3.4-1,4.4c-0.6,1-1.6,1.7-2.9,2.1s-3,0.6-5,0.6c-0.2,0-0.5,0-0.9-0.1c-0.4,0-0.6-0.1-0.9-0.1c-0.1,0.2-0.2,0.5-0.3,0.8
			c-0.1,0.3-0.2,0.5-0.2,0.6c0,0.3,0.1,0.5,0.4,0.7s0.7,0.3,1.5,0.3c0.7,0.1,1.8,0.1,3.3,0.1c1.9,0,3.4,0.2,4.6,0.5s1.9,1,2.4,1.9
			c0.5,0.9,0.7,2.2,0.7,3.8c0,2.4-0.9,4.3-2.6,5.5C313.9,244.6,311.5,245.2,308.4,245.2z M308.1,240.7c1.6,0,2.7-0.2,3.4-0.5
			s1-0.9,1-1.6c0-0.6-0.1-1-0.4-1.3c-0.2-0.3-0.6-0.5-1.2-0.5c-0.6-0.1-1.3-0.1-2.3-0.1c-0.3,0-0.6,0-1,0c-0.4,0-0.7,0-1.1,0
			s-0.7,0-1,0c-0.3,0-0.5,0-0.6-0.1c-0.5,0.4-0.9,0.7-1,1c-0.2,0.3-0.3,0.7-0.3,1.2c0,0.5,0.1,0.9,0.4,1.2s0.8,0.5,1.4,0.6
			C306.1,240.6,307,240.7,308.1,240.7z M307.5,225.1c1.1,0,1.9-0.2,2.3-0.7c0.5-0.4,0.7-1.2,0.7-2.2c0-1-0.2-1.8-0.7-2.2
			c-0.5-0.4-1.3-0.7-2.3-0.7c-1.1,0-1.8,0.2-2.3,0.7c-0.5,0.4-0.7,1.2-0.7,2.2c0,1,0.2,1.8,0.7,2.2
			C305.6,224.9,306.4,225.1,307.5,225.1z"/>
	</g>
</g>
</svg>
