<?xml version="1.0" encoding="utf-8"?>
<!-- Generator: Adobe Illustrator 27.1.1, SVG Export Plug-In . SVG Version: 6.00 Build 0)  -->
<svg version="1.1" id="Layer_1" xmlns="http://www.w3.org/2000/svg" xmlns:xlink="http://www.w3.org/1999/xlink" x="0px" y="0px"
	 viewBox="0 0 489 455" style="enable-background:new 0 0 489 455;" xml:space="preserve">
<style type="text/css">
	.st0{opacity:0.6;fill:#9180EE;}
	.st1{fill:#9180EE;}
	.st2{fill:#FFFFFF;}
</style>
<path class="st0" d="M433.8,449.9H55.1c-27.6,0-50-22.4-50-50V54.4c0-27.6,22.4-50,50-50h378.8c27.6,0,50,22.4,50,50v345.5
	C483.8,427.5,461.5,449.9,433.8,449.9z"/>
<g>
	<rect x="170.5" y="153.1" class="st1" width="148" height="148"/>
</g>
<g>
	<g>
		<path class="st2" d="M157.4,236.5c-1,0-2-0.1-3.1-0.2c-1.1-0.1-2.1-0.3-3.1-0.4c-1-0.2-1.8-0.3-2.5-0.5l0.3-4.9
			c0.6,0.1,1.4,0.2,2.3,0.3c0.9,0.1,1.8,0.2,2.8,0.2c0.9,0.1,1.8,0.1,2.6,0.1c1.4,0,2.4-0.2,3.1-0.7c0.7-0.5,1.1-1.3,1.1-2.4
			c0-0.8-0.1-1.4-0.4-1.8c-0.3-0.4-0.7-0.8-1.3-1s-1.2-0.3-2-0.4h-5.6v-5h5.4c0.6,0,1.2-0.1,1.7-0.3c0.5-0.2,1-0.6,1.3-1
			c0.3-0.4,0.5-1,0.5-1.6c0-1-0.3-1.7-1-2.1c-0.7-0.4-1.7-0.6-3.1-0.6c-0.8,0-1.6,0-2.5,0.1c-0.9,0.1-1.7,0.1-2.5,0.2
			c-0.8,0.1-1.5,0.2-2,0.3l-0.2-4.8c0.6-0.2,1.3-0.3,2.2-0.5c0.9-0.2,1.8-0.3,2.8-0.5c1-0.1,1.8-0.2,2.7-0.2c2.4,0,4.3,0.2,5.8,0.7
			c1.5,0.5,2.6,1.3,3.2,2.4c0.7,1.1,1,2.5,1,4.3c0,0.9-0.1,1.6-0.3,2.3c-0.2,0.6-0.5,1.2-0.8,1.6c-0.3,0.4-0.7,0.8-1.1,1.1
			c-0.4,0.3-0.7,0.6-1.1,0.8c0.8,0.4,1.4,0.8,2,1.3c0.6,0.5,1,1.1,1.3,1.8c0.3,0.7,0.4,1.7,0.4,2.9c0,2.1-0.4,3.7-1.1,5
			c-0.7,1.2-1.8,2.1-3.3,2.7C161.4,236.2,159.5,236.5,157.4,236.5z"/>
		<path class="st2" d="M171.5,236v-27.6h10.8c2.2,0,4,0.3,5.6,0.9c1.5,0.6,2.8,1.5,3.7,2.6c0.9,1.1,1.6,2.5,2,4.2
			c0.4,1.7,0.6,3.6,0.6,5.7c0,2.1-0.2,4.1-0.6,5.8c-0.4,1.7-1,3.2-1.9,4.5c-0.9,1.3-2.1,2.2-3.6,2.9c-1.5,0.7-3.4,1-5.6,1H171.5z
			 M177.9,230.6h4.2c1.2,0,2.2-0.2,2.9-0.7c0.7-0.4,1.3-1.1,1.7-1.9c0.4-0.8,0.6-1.7,0.8-2.8c0.1-1.1,0.2-2.2,0.2-3.5
			c0-1.2-0.1-2.4-0.2-3.3c-0.1-1-0.4-1.8-0.8-2.5c-0.4-0.7-1-1.3-1.7-1.6c-0.7-0.4-1.7-0.6-2.8-0.6h-4.2V230.6z"/>
		<path class="st2" d="M197.5,227.9v-5.2h12.2v5.2H197.5z"/>
		<path class="st2" d="M213.8,236v-27.6h10.8c2.2,0,4,0.3,5.6,0.9c1.5,0.6,2.8,1.5,3.7,2.6c0.9,1.1,1.6,2.5,2,4.2
			c0.4,1.7,0.6,3.6,0.6,5.7c0,2.1-0.2,4.1-0.6,5.8c-0.4,1.7-1,3.2-1.9,4.5c-0.9,1.3-2.1,2.2-3.6,2.9c-1.5,0.7-3.4,1-5.6,1H213.8z
			 M220.3,230.6h4.2c1.2,0,2.2-0.2,2.9-0.7c0.7-0.4,1.3-1.1,1.7-1.9c0.4-0.8,0.6-1.7,0.8-2.8c0.1-1.1,0.2-2.2,0.2-3.5
			c0-1.2-0.1-2.4-0.2-3.3c-0.1-1-0.4-1.8-0.8-2.5c-0.4-0.7-1-1.3-1.7-1.6c-0.7-0.4-1.7-0.6-2.8-0.6h-4.2V230.6z"/>
		<path class="st2" d="M248.5,236.5c-2.3,0-4.1-0.4-5.5-1.1c-1.4-0.8-2.3-1.9-2.9-3.4c-0.6-1.5-0.9-3.5-0.9-5.8
			c0-2.5,0.4-4.5,1.1-6.1c0.7-1.6,1.8-2.8,3.2-3.6c1.4-0.8,3.2-1.2,5.3-1.2c3.1,0,5.5,0.8,7.1,2.3c1.6,1.5,2.4,3.9,2.4,7.2l-0.3,3.2
			h-12.5c0,1.3,0.3,2.3,0.8,2.9s1.4,1,2.7,1c0.8,0,1.8,0,2.8-0.1c1,0,2.1-0.1,3.1-0.1c1-0.1,1.9-0.1,2.6-0.2l0.1,4.2
			c-0.7,0.1-1.6,0.3-2.6,0.4c-1.1,0.1-2.2,0.3-3.3,0.4C250.6,236.4,249.5,236.5,248.5,236.5z M245.4,224h6.7c0-1.6-0.3-2.8-0.8-3.4
			c-0.5-0.6-1.3-1-2.5-1s-2,0.3-2.5,1C245.7,221.3,245.4,222.5,245.4,224z"/>
		<path class="st2" d="M269,236.5c-1,0-2-0.1-3.1-0.2c-1.1-0.1-2-0.2-2.9-0.4c-0.9-0.1-1.6-0.3-2.2-0.4l0.2-4.5
			c0.7,0.1,1.5,0.2,2.4,0.3c0.9,0.1,1.8,0.2,2.6,0.3c0.9,0.1,1.6,0.1,2.1,0.1c0.7,0,1.3-0.1,1.8-0.2c0.5-0.1,0.8-0.3,1-0.6
			c0.2-0.3,0.3-0.6,0.3-1.1c0-0.4-0.1-0.6-0.3-0.9c-0.2-0.2-0.6-0.4-1.2-0.5c-0.6-0.1-1.4-0.3-2.6-0.5c-1.5-0.2-2.8-0.5-3.7-1
			c-1-0.4-1.7-1-2.1-1.9c-0.4-0.8-0.7-1.9-0.7-3.3c0-1.8,0.4-3.1,1.1-4.1c0.7-1,1.7-1.7,3-2c1.2-0.4,2.6-0.6,4.1-0.6
			c1,0,2.1,0,3.1,0.1c1,0.1,2,0.2,2.9,0.3c0.9,0.1,1.6,0.3,2.2,0.4l-0.2,4.6c-0.7-0.1-1.5-0.2-2.4-0.3c-0.9-0.1-1.8-0.2-2.7-0.2
			c-0.9-0.1-1.6-0.1-2.2-0.1c-0.6,0-1.1,0-1.5,0.1c-0.4,0.1-0.7,0.3-1,0.5c-0.2,0.2-0.3,0.6-0.3,1c0,0.3,0.1,0.6,0.3,0.8
			c0.2,0.2,0.6,0.4,1.1,0.5c0.6,0.1,1.4,0.3,2.5,0.4c1.6,0.2,3,0.6,4,1c1,0.5,1.7,1.1,2.1,1.9c0.4,0.8,0.6,1.9,0.6,3.3
			c0,2.5-0.7,4.2-2.2,5.3C273.9,236,271.8,236.5,269,236.5z"/>
		<path class="st2" d="M280.7,212.8v-4.9h6.2v4.9H280.7z M280.7,236v-20.4h6.2V236H280.7z"/>
		<path class="st2" d="M300.2,245.2c-2.2,0-4-0.2-5.5-0.5s-2.7-0.9-3.4-1.7c-0.8-0.8-1.2-2.1-1.2-3.7c0-0.7,0.1-1.3,0.3-1.9
			c0.2-0.5,0.5-1.1,0.9-1.6s1-1,1.7-1.5c-0.4-0.3-0.7-0.7-0.9-1.2s-0.4-1.1-0.4-1.7c0-0.3,0.2-0.8,0.6-1.4c0.4-0.6,0.8-1.2,1.3-1.6
			c-0.5-0.3-1.1-0.6-1.5-1.1c-0.5-0.5-0.9-1.1-1.2-1.9c-0.3-0.8-0.5-1.8-0.5-3.1c0-2.6,0.7-4.5,2.2-5.5c1.5-1.1,3.7-1.6,6.6-1.6
			c0.7,0,1.4,0,2.3,0.1c0.8,0.1,1.5,0.2,2,0.3l6.8-0.2v4.1l-2.8,0c0.2,0.3,0.4,0.7,0.6,1.1c0.2,0.5,0.2,1,0.2,1.7
			c0,1.9-0.3,3.4-1,4.4c-0.6,1-1.6,1.7-2.9,2.1s-3,0.6-5,0.6c-0.2,0-0.5,0-0.9-0.1c-0.4,0-0.6-0.1-0.9-0.1c-0.1,0.2-0.2,0.5-0.3,0.8
			c-0.1,0.3-0.2,0.5-0.2,0.6c0,0.3,0.1,0.5,0.4,0.7s0.7,0.3,1.5,0.3c0.7,0.1,1.8,0.1,3.3,0.1c1.9,0,3.4,0.2,4.6,0.5s1.9,1,2.4,1.9
			c0.5,0.9,0.7,2.2,0.7,3.8c0,2.4-0.9,4.3-2.6,5.5C305.7,244.6,303.3,245.2,300.2,245.2z M299.9,240.7c1.6,0,2.7-0.2,3.4-0.5
			s1-0.9,1-1.6c0-0.6-0.1-1-0.4-1.3c-0.2-0.3-0.6-0.5-1.2-0.5c-0.6-0.1-1.3-0.1-2.3-0.1c-0.3,0-0.6,0-1,0c-0.4,0-0.7,0-1.1,0
			s-0.7,0-1,0c-0.3,0-0.5,0-0.6-0.1c-0.5,0.4-0.9,0.7-1,1c-0.2,0.3-0.3,0.7-0.3,1.2c0,0.5,0.1,0.9,0.4,1.2s0.8,0.5,1.4,0.6
			C297.9,240.6,298.8,240.7,299.9,240.7z M299.3,225.1c1.1,0,1.9-0.2,2.3-0.7c0.5-0.4,0.7-1.2,0.7-2.2c0-1-0.2-1.8-0.7-2.2
			c-0.5-0.4-1.3-0.7-2.3-0.7c-1.1,0-1.8,0.2-2.3,0.7c-0.5,0.4-0.7,1.2-0.7,2.2c0,1,0.2,1.8,0.7,2.2
			C297.5,224.9,298.2,225.1,299.3,225.1z"/>
		<path class="st2" d="M312.8,236v-20.4h6.2v1.3c0.4-0.3,0.9-0.5,1.5-0.8c0.6-0.3,1.2-0.5,1.9-0.6c0.7-0.2,1.3-0.3,1.9-0.3
			c1.9,0,3.4,0.3,4.5,1c1.1,0.7,1.8,1.8,2.3,3.3c0.4,1.5,0.7,3.5,0.7,6.1V236h-6.2v-10.1c0-1.3-0.1-2.3-0.2-3.1
			c-0.2-0.8-0.4-1.4-0.9-1.7c-0.4-0.4-1-0.5-1.7-0.5c-0.4,0-0.9,0-1.3,0.1c-0.5,0.1-0.9,0.2-1.3,0.3c-0.4,0.1-0.7,0.3-1,0.4V236
			H312.8z"/>
	</g>
</g>
</svg>
