<?xml version="1.0" encoding="utf-8"?>
<!-- Generator: Adobe Illustrator 27.2.0, SVG Export Plug-In . SVG Version: 6.00 Build 0)  -->
<svg version="1.1" id="Layer_1" xmlns="http://www.w3.org/2000/svg" xmlns:xlink="http://www.w3.org/1999/xlink" x="0px" y="0px"
	 viewBox="0 0 478.8 445.5" style="enable-background:new 0 0 478.8 445.5;" xml:space="preserve">
<style type="text/css">
	.st0{fill:#47021E;}
	.st1{enable-background:new    ;}
	.st2{fill:#F73163;}
	.st3{fill:#001E36;}
	.st4{fill:#31A8FF;}
	.st5{fill:#330000;}
	.st6{fill:#FF9A00;}
	.st7{opacity:0.6;fill:#9180EE;enable-background:new    ;}
	.st8{fill:#FFFFFF;}
</style>
<g>
	<g>
		<path class="st0" d="M63.8,197.3h70.6c12.8,0,23.2,10.4,23.2,23.2V291c0,12.8-10.4,23.2-23.2,23.2H63.8
			c-12.8,0-23.2-10.4-23.2-23.2v-70.6C40.5,207.6,50.9,197.3,63.8,197.3z"/>
		<g>
			<g class="st1">
				<path class="st2" d="M76.8,279v-48.4h5.6V279H76.8z"/>
				<path class="st2" d="M104.4,279.7c-1.4,0-2.7-0.2-4-0.5c-1.3-0.3-2.4-0.8-3.5-1.6c-1.1-0.7-2-1.8-2.8-3.1
					c-0.8-1.3-1.4-3-1.8-5.2c-0.4-2.1-0.6-4.6-0.6-7.6c0-4.2,0.5-7.6,1.5-10.3c1-2.7,2.5-4.8,4.7-6.1c2.1-1.4,5-2,8.6-2
					c1.4,0,2.9,0.1,4.6,0.3s3,0.4,3.9,0.6v-15.4h5.5V279H115v-2.3c-0.7,0.4-1.7,0.9-2.9,1.3c-1.2,0.5-2.5,0.9-3.8,1.2
					C107,279.5,105.7,279.7,104.4,279.7z M105.1,274.8c1.2,0,2.4-0.1,3.7-0.4c1.2-0.3,2.4-0.6,3.5-1c1.1-0.4,2-0.8,2.7-1.1v-23.5
					c-0.6-0.1-1.3-0.2-2.3-0.3c-1-0.1-2-0.2-3-0.3c-1.1-0.1-2-0.1-2.8-0.1c-2.4,0-4.3,0.5-5.6,1.5c-1.4,1-2.3,2.6-2.9,4.6
					c-0.6,2-0.9,4.6-0.9,7.6c0,2.8,0.2,5.1,0.6,6.8s1,3,1.7,3.9c0.7,0.9,1.6,1.5,2.5,1.9C103.1,274.6,104.1,274.8,105.1,274.8z"/>
			</g>
		</g>
	</g>
	<g>
		<path class="st3" d="M201.8,197.3h70.6c12.8,0,23.2,10.4,23.2,23.2V291c0,12.8-10.4,23.2-23.2,23.2h-70.6
			c-12.8,0-23.2-10.4-23.2-23.2v-70.6C178.6,207.6,188.9,197.3,201.8,197.3z"/>
		<g>
			<g class="st1">
				<path class="st4" d="M205.3,279.2v-48.4H223c3.6,0,6.5,0.6,8.8,1.7c2.3,1.1,4,2.9,5.1,5.2s1.7,5.2,1.7,8.8
					c0,3.5-0.6,6.5-1.7,8.9c-1.1,2.5-2.8,4.3-5.1,5.6c-2.3,1.3-5.2,1.9-8.8,1.9h-12.1v16.3H205.3z M210.9,258H223c3.5,0,6-1,7.5-3
					c1.5-2,2.3-4.9,2.3-8.6c0-3.7-0.8-6.5-2.3-8.2c-1.5-1.7-4-2.6-7.5-2.6h-12.1V258z"/>
				<path class="st4" d="M256.9,279.9c-1.1,0-2.4-0.1-3.9-0.2c-1.5-0.1-3-0.3-4.5-0.5c-1.5-0.2-2.8-0.4-4-0.6l0.3-4.7
					c1.2,0.1,2.5,0.3,4,0.5c1.5,0.2,2.9,0.3,4.3,0.5c1.4,0.1,2.5,0.2,3.4,0.2c1.9,0,3.5-0.2,4.8-0.5s2.2-0.9,2.9-1.8
					c0.7-0.8,1-2,1-3.6c0-1.2-0.2-2.1-0.7-2.7c-0.5-0.7-1.4-1.2-2.7-1.6s-3.3-0.8-5.8-1.2c-2.6-0.4-4.8-0.9-6.6-1.6
					c-1.8-0.6-3-1.6-3.9-2.8c-0.8-1.3-1.3-3.1-1.3-5.4c0-2.6,0.6-4.7,1.8-6.2c1.2-1.5,2.8-2.6,4.7-3.2c1.9-0.6,4-0.9,6.1-0.9
					c1.3,0,2.7,0.1,4.3,0.2c1.6,0.1,3.1,0.3,4.6,0.5c1.5,0.2,2.8,0.4,3.9,0.6l-0.1,4.7c-1.1-0.2-2.4-0.4-3.9-0.5
					c-1.5-0.2-3-0.3-4.5-0.4c-1.5-0.1-2.8-0.2-3.9-0.2c-1.4,0-2.7,0.2-3.8,0.5c-1.1,0.3-2,0.8-2.7,1.6c-0.7,0.7-1,1.8-1,3.2
					c0,1,0.2,1.9,0.7,2.5c0.5,0.6,1.4,1.2,2.7,1.6c1.3,0.4,3.2,0.8,5.7,1.3c2.9,0.5,5.2,1.1,7,1.8c1.8,0.7,3,1.7,3.8,2.9
					c0.8,1.3,1.2,3,1.2,5.3c0,4.1-1.2,7-3.6,8.6C264.5,279.1,261.2,279.9,256.9,279.9z"/>
			</g>
		</g>
	</g>
	<g>
		<path class="st5" d="M339.8,197.3h70.6c12.8,0,23.2,10.4,23.2,23.2V291c0,12.8-10.4,23.2-23.2,23.2h-70.6
			c-12.8,0-23.2-10.4-23.2-23.2v-70.6C316.5,207.6,326.9,197.3,339.8,197.3z"/>
		<g>
			<g class="st1">
				<path class="st6" d="M346.5,279.4l13.2-48.4h12.1l13.2,48.4h-5.6l-3.4-12.3h-20.5l-3.4,12.3H346.5z M356.8,262.1h18.1l-7.2-26.4
					H364L356.8,262.1z"/>
				<path class="st6" d="M391.8,236.6v-6.3h5.4v6.3H391.8z M391.8,279.4v-35h5.4v35H391.8z"/>
			</g>
		</g>
	</g>
</g>
<path class="st7" d="M428.7,445.5H50c-27.6,0-50-22.4-50-50V50C0,22.4,22.4,0,50,0h378.8c27.6,0,50,22.4,50,50v345.5
	C478.7,423.1,456.4,445.5,428.7,445.5L428.7,445.5z"/>
<g>
	<g class="st1">
		<path class="st8" d="M104.4,232c-2.4,0-4.4-0.3-5.9-0.9c-1.5-0.6-2.7-1.5-3.6-2.7c-0.9-1.2-1.5-2.7-1.8-4.4
			c-0.4-1.8-0.5-3.8-0.5-6.2c0-2.5,0.2-4.7,0.6-6.5c0.4-1.8,1.1-3.3,2-4.4c0.9-1.1,2.2-2,3.7-2.6c1.5-0.6,3.4-0.8,5.6-0.8
			c1.1,0,2.2,0.1,3.5,0.2c1.2,0.1,2.4,0.3,3.5,0.5c1.1,0.2,2,0.4,2.8,0.6l0,4.9c-0.8-0.1-1.7-0.2-2.8-0.3c-1.1-0.1-2.2-0.2-3.3-0.3
			c-1.1-0.1-2.1-0.1-3-0.1c-1.3,0-2.3,0.2-3.1,0.5c-0.8,0.3-1.4,0.9-1.8,1.6s-0.7,1.6-0.8,2.7c-0.1,1.1-0.2,2.4-0.2,4
			c0,2,0.1,3.7,0.4,4.9c0.3,1.3,0.9,2.3,1.7,2.9c0.8,0.6,2,1,3.6,1c0.4,0,0.7,0,1.2,0c0.4,0,0.8-0.1,1.2-0.1c0.4,0,0.8-0.1,1.1-0.1
			v-5.2h-2.8v-4.8h8.9V231c-0.6,0.1-1.4,0.2-2.3,0.3c-0.9,0.1-1.8,0.3-2.7,0.4c-0.9,0.1-1.8,0.2-2.7,0.3
			C105.8,232,105.1,232,104.4,232z"/>
		<path class="st8" d="M118.2,231.6v-20.4h6.2v2.3c0.4-0.4,1-0.7,1.6-1.1c0.6-0.4,1.3-0.8,2.1-1.1c0.7-0.3,1.4-0.5,2.1-0.6v5.9
			c-0.6,0.1-1.3,0.2-2.1,0.5c-0.7,0.2-1.4,0.5-2.1,0.8s-1.2,0.5-1.7,0.8v12.9H118.2z"/>
		<path class="st8" d="M138.3,232.1c-2.2,0-3.9-0.5-5-1.6c-1.1-1.1-1.6-2.7-1.6-4.9c0-1.6,0.3-2.8,0.9-3.6c0.6-0.9,1.4-1.5,2.5-1.8
			c1.1-0.4,2.4-0.6,4-0.7l4.5-0.4V218c0-0.8-0.2-1.4-0.7-1.7c-0.4-0.3-1.1-0.5-2-0.5c-0.8,0-1.7,0-2.7,0.1c-1,0.1-2,0.1-3,0.2
			c-1,0.1-1.8,0.2-2.5,0.2l-0.2-4.3c0.7-0.2,1.6-0.4,2.6-0.5s2.1-0.3,3.2-0.4c1.1-0.1,2.1-0.2,3.1-0.2c1.8,0,3.3,0.2,4.5,0.6
			c1.2,0.4,2.2,1.1,2.8,2.1c0.6,1,1,2.4,1,4.1v8.9c0.1,0.3,0.3,0.6,0.6,0.8c0.3,0.2,0.7,0.3,1,0.4l-0.1,4.1c-0.6,0.1-1.3,0.1-2,0.1
			c-0.7,0-1.2,0-1.6,0c-0.7-0.1-1.3-0.3-1.8-0.5c-0.5-0.3-0.9-0.5-1.1-0.8c-0.4,0.2-1,0.4-1.7,0.6c-0.7,0.2-1.5,0.4-2.3,0.6
			C140,232,139.2,232.1,138.3,232.1z M139.9,227.6c0.5,0,0.9-0.1,1.4-0.2c0.5-0.1,0.9-0.2,1.4-0.4c0.4-0.1,0.8-0.3,1.1-0.4v-4
			l-3.6,0.3c-0.8,0.1-1.3,0.3-1.7,0.7c-0.4,0.4-0.5,0.9-0.5,1.6c0,0.7,0.2,1.2,0.5,1.6C138.7,227.4,139.2,227.6,139.9,227.6z"/>
		<path class="st8" d="M154.2,240.1v-28.8h6.1l0,1.3c0.4-0.2,0.8-0.5,1.4-0.8c0.6-0.3,1.2-0.5,1.8-0.7s1.3-0.3,1.9-0.3
			c2.8,0,4.7,0.9,5.9,2.7s1.8,4.4,1.8,8c0,2.5-0.3,4.5-0.9,6.1c-0.6,1.6-1.5,2.7-2.8,3.5c-1.3,0.7-3,1.1-5.2,1.1
			c-0.6,0-1.3-0.1-2.1-0.2c-0.7-0.1-1.3-0.2-1.8-0.3v8.4H154.2z M163.1,227c1,0,1.7-0.2,2.3-0.7c0.5-0.4,0.9-1.1,1.2-1.9
			c0.2-0.9,0.3-1.9,0.3-3.1c0-2-0.3-3.4-0.8-4.2c-0.5-0.8-1.3-1.1-2.4-1.1c-0.4,0-0.7,0-1.2,0.1c-0.4,0.1-0.8,0.2-1.2,0.3
			c-0.4,0.1-0.7,0.3-1,0.4v9.9c0.3,0.1,0.7,0.1,1.2,0.2C162.1,227,162.6,227,163.1,227z"/>
		<path class="st8" d="M176.5,231.6v-28.5h6.2v8.8c0.6-0.2,1.5-0.5,2.5-0.7c1-0.2,1.9-0.4,2.7-0.4c1.9,0,3.4,0.3,4.5,1
			c1.1,0.7,1.8,1.7,2.3,3.2c0.4,1.5,0.7,3.5,0.7,6v10.7h-6.2v-10.1c0-1.3-0.1-2.3-0.2-3.1c-0.1-0.8-0.4-1.4-0.8-1.7
			c-0.4-0.4-1-0.5-1.8-0.5c-0.6,0-1.3,0.1-2,0.2s-1.2,0.3-1.6,0.4v14.8H176.5z"/>
		<path class="st8" d="M199.1,208.4v-4.9h6.2v4.9H199.1z M199.1,231.6v-20.4h6.2v20.4H199.1z"/>
		<path class="st8" d="M218,232.1c-2.4,0-4.3-0.4-5.6-1.1c-1.4-0.7-2.3-1.9-2.8-3.5s-0.8-3.7-0.8-6.3c0-2.6,0.3-4.7,0.9-6.2
			s1.6-2.6,3-3.3c1.4-0.7,3.2-1,5.4-1c0.6,0,1.3,0,2.1,0.1c0.8,0.1,1.6,0.2,2.4,0.3s1.5,0.3,2,0.4l-0.2,4.9
			c-0.5-0.1-1.1-0.1-1.8-0.2c-0.7-0.1-1.3-0.1-1.9-0.1c-0.6,0-1.1-0.1-1.5-0.1c-1,0-1.8,0.2-2.4,0.5c-0.6,0.3-1,0.9-1.3,1.6
			c-0.2,0.7-0.4,1.7-0.4,3c0,1.3,0.1,2.3,0.3,3.1c0.2,0.8,0.6,1.4,1.2,1.7c0.6,0.3,1.4,0.5,2.5,0.5c0.4,0,0.9,0,1.5-0.1
			c0.6,0,1.3-0.1,2-0.1c0.7-0.1,1.3-0.1,1.8-0.1l0.2,4.9c-0.5,0.1-1.2,0.3-2,0.4c-0.8,0.1-1.6,0.2-2.4,0.3
			C219.3,232.1,218.6,232.1,218,232.1z"/>
		<path class="st8" d="M236.7,231.6v-27.6h10.8c2.2,0,4,0.3,5.6,0.9c1.5,0.6,2.8,1.5,3.7,2.6s1.6,2.5,2,4.2c0.4,1.7,0.6,3.6,0.6,5.7
			c0,2.1-0.2,4.1-0.6,5.8c-0.4,1.7-1,3.2-1.9,4.5c-0.9,1.3-2.1,2.2-3.6,2.9c-1.5,0.7-3.4,1-5.6,1H236.7z M243.1,226.3h4.2
			c1.2,0,2.2-0.2,2.9-0.7c0.7-0.4,1.3-1.1,1.7-1.9s0.6-1.7,0.8-2.8c0.1-1.1,0.2-2.2,0.2-3.5c0-1.2-0.1-2.4-0.2-3.3
			c-0.1-1-0.4-1.8-0.8-2.5c-0.4-0.7-1-1.3-1.7-1.6c-0.7-0.4-1.7-0.6-2.8-0.6h-4.2V226.3z"/>
		<path class="st8" d="M271.3,232.1c-2.3,0-4.1-0.4-5.5-1.1c-1.4-0.8-2.3-1.9-2.9-3.4c-0.6-1.5-0.9-3.5-0.9-5.8
			c0-2.5,0.4-4.5,1.1-6.1c0.7-1.6,1.8-2.8,3.2-3.6c1.4-0.8,3.2-1.2,5.3-1.2c3.1,0,5.5,0.8,7.1,2.3c1.6,1.5,2.4,3.9,2.4,7.2l-0.3,3.2
			h-12.5c0,1.3,0.3,2.3,0.8,2.9c0.5,0.6,1.4,1,2.7,1c0.8,0,1.8,0,2.8-0.1c1,0,2.1-0.1,3.1-0.1c1-0.1,1.9-0.1,2.6-0.2l0.1,4.2
			c-0.7,0.1-1.6,0.3-2.6,0.4s-2.1,0.3-3.3,0.4S272.4,232.1,271.3,232.1z M268.2,219.7h6.7c0-1.6-0.3-2.8-0.8-3.4
			c-0.5-0.6-1.3-1-2.5-1s-2,0.3-2.5,1C268.5,217,268.2,218.1,268.2,219.7z"/>
		<path class="st8" d="M291.9,232.1c-1,0-2-0.1-3.1-0.2s-2-0.2-2.9-0.4c-0.9-0.1-1.6-0.3-2.2-0.4l0.2-4.5c0.7,0.1,1.5,0.2,2.4,0.3
			c0.9,0.1,1.8,0.2,2.6,0.3s1.6,0.1,2.1,0.1c0.7,0,1.3-0.1,1.8-0.2c0.5-0.1,0.8-0.3,1-0.6c0.2-0.3,0.3-0.6,0.3-1.1
			c0-0.4-0.1-0.6-0.3-0.9c-0.2-0.2-0.6-0.4-1.2-0.5s-1.4-0.3-2.6-0.5c-1.5-0.2-2.8-0.5-3.7-1s-1.7-1-2.1-1.9
			c-0.4-0.8-0.7-1.9-0.7-3.3c0-1.8,0.4-3.1,1.1-4.1c0.7-1,1.7-1.7,3-2c1.2-0.4,2.6-0.6,4.1-0.6c1,0,2.1,0,3.1,0.1
			c1,0.1,2,0.2,2.9,0.3c0.9,0.1,1.6,0.3,2.2,0.4l-0.2,4.6c-0.7-0.1-1.5-0.2-2.4-0.3c-0.9-0.1-1.8-0.2-2.7-0.2
			c-0.9-0.1-1.6-0.1-2.2-0.1c-0.6,0-1.1,0-1.5,0.1c-0.4,0.1-0.7,0.3-1,0.5c-0.2,0.2-0.3,0.6-0.3,1c0,0.3,0.1,0.6,0.3,0.8
			c0.2,0.2,0.6,0.4,1.1,0.5c0.6,0.1,1.4,0.3,2.5,0.4c1.6,0.2,3,0.6,4,1c1,0.5,1.7,1.1,2.1,1.9c0.4,0.8,0.6,1.9,0.6,3.3
			c0,2.5-0.7,4.2-2.2,5.3S294.6,232.1,291.9,232.1z"/>
		<path class="st8" d="M303.6,208.4v-4.9h6.2v4.9H303.6z M303.6,231.6v-20.4h6.2v20.4H303.6z"/>
		<path class="st8" d="M323.1,240.8c-2.2,0-4-0.2-5.5-0.5s-2.7-0.9-3.4-1.7s-1.2-2.1-1.2-3.7c0-0.7,0.1-1.3,0.3-1.9
			c0.2-0.5,0.5-1.1,0.9-1.6s1-1,1.7-1.5c-0.4-0.3-0.7-0.7-0.9-1.2c-0.2-0.5-0.4-1.1-0.4-1.7c0-0.3,0.2-0.8,0.6-1.4
			c0.4-0.6,0.8-1.2,1.3-1.6c-0.5-0.3-1.1-0.6-1.5-1.1c-0.5-0.5-0.9-1.1-1.2-1.9c-0.3-0.8-0.5-1.8-0.5-3.1c0-2.6,0.7-4.5,2.2-5.5
			c1.5-1.1,3.7-1.6,6.6-1.6c0.7,0,1.4,0,2.3,0.1c0.8,0.1,1.5,0.2,2,0.3l6.8-0.2v4.1l-2.8,0c0.2,0.3,0.4,0.7,0.6,1.1s0.2,1,0.2,1.7
			c0,1.9-0.3,3.4-1,4.4c-0.6,1-1.6,1.7-2.9,2.1c-1.3,0.4-3,0.6-5,0.6c-0.2,0-0.5,0-0.9-0.1c-0.4,0-0.6-0.1-0.9-0.1
			c-0.1,0.2-0.2,0.5-0.3,0.8c-0.1,0.3-0.2,0.5-0.2,0.6c0,0.3,0.1,0.5,0.4,0.7s0.7,0.3,1.5,0.3c0.7,0.1,1.8,0.1,3.3,0.1
			c1.9,0,3.4,0.2,4.6,0.5s1.9,1,2.4,1.9c0.5,0.9,0.7,2.2,0.7,3.8c0,2.4-0.9,4.3-2.6,5.5C328.5,240.2,326.2,240.8,323.1,240.8z
			 M322.7,236.3c1.6,0,2.7-0.2,3.4-0.5c0.7-0.3,1-0.9,1-1.6c0-0.6-0.1-1-0.4-1.3s-0.6-0.5-1.2-0.5c-0.6-0.1-1.3-0.1-2.3-0.1
			c-0.3,0-0.6,0-1,0c-0.4,0-0.7,0-1.1,0s-0.7,0-1,0c-0.3,0-0.5,0-0.6-0.1c-0.5,0.4-0.9,0.7-1,1c-0.2,0.3-0.3,0.7-0.3,1.2
			c0,0.5,0.1,0.9,0.4,1.2c0.3,0.3,0.8,0.5,1.4,0.6C320.8,236.3,321.7,236.3,322.7,236.3z M322.1,220.8c1.1,0,1.9-0.2,2.3-0.7
			c0.5-0.4,0.7-1.2,0.7-2.2c0-1-0.2-1.8-0.7-2.2c-0.5-0.4-1.3-0.7-2.3-0.7c-1.1,0-1.8,0.2-2.3,0.7c-0.5,0.4-0.7,1.2-0.7,2.2
			c0,1,0.2,1.8,0.7,2.2S321.1,220.8,322.1,220.8z"/>
		<path class="st8" d="M335.6,231.6v-20.4h6.2v1.3c0.4-0.3,0.9-0.5,1.5-0.8c0.6-0.3,1.2-0.5,1.9-0.6c0.7-0.2,1.3-0.3,1.9-0.3
			c1.9,0,3.4,0.3,4.5,1c1.1,0.7,1.8,1.8,2.3,3.3c0.4,1.5,0.7,3.5,0.7,6.1v10.5h-6.2v-10.1c0-1.3-0.1-2.3-0.2-3.1
			c-0.2-0.8-0.4-1.4-0.9-1.7c-0.4-0.4-1-0.5-1.7-0.5c-0.4,0-0.9,0-1.3,0.1s-0.9,0.2-1.3,0.3s-0.7,0.3-1,0.4v14.6H335.6z"/>
		<path class="st8" d="M376.2,231.6v-19.9l-6.2,3.3l-1.9-4.6l9-5.6h5.5v26.7H376.2z"/>
	</g>
</g>
</svg>
