<?xml version="1.0" encoding="utf-8"?>
<!-- Generator: Adobe Illustrator 27.2.0, SVG Export Plug-In . SVG Version: 6.00 Build 0)  -->
<svg version="1.1" id="Layer_1" xmlns="http://www.w3.org/2000/svg" xmlns:xlink="http://www.w3.org/1999/xlink" x="0px" y="0px"
	 viewBox="0 0 283.5 283.5" style="enable-background:new 0 0 283.5 283.5;" xml:space="preserve">
<style type="text/css">
	.st0{fill:#F8EFB4;stroke:#6658B4;stroke-miterlimit:10;}
</style>
<g>
	<path class="st0" d="M247.1,216H36.3c-6.6,0-11.9-5.3-11.9-11.9V79.2c0-6.6,5.3-11.9,11.9-11.9h210.8c6.6,0,11.9,5.3,11.9,11.9
		v124.9C259,210.7,253.7,216,247.1,216z"/>
	<path class="st0" d="M29,78.6c-5.6-3.7-2.4-10.9,4.9-10.9l107.7,0l107.7,0c7.3,0,10.5,7.3,4.9,10.9l-47.9,31.1l-59.8,38.9
		c-2.8,1.8-6.9,1.8-9.8,0l-59.8-38.9L29,78.6z"/>
</g>
</svg>
