<?xml version="1.0" encoding="utf-8"?>
<!-- Generator: Adobe Illustrator 26.5.0, SVG Export Plug-In . SVG Version: 6.00 Build 0)  -->
<svg version="1.1" id="Layer_1" xmlns="http://www.w3.org/2000/svg" xmlns:xlink="http://www.w3.org/1999/xlink" x="0px" y="0px"
	 viewBox="0 0 425.2 425.2" style="enable-background:new 0 0 425.2 425.2;" xml:space="preserve">
<style type="text/css">
	.st0{fill:#6658B4;}
</style>
<g>
	<path class="st0" d="M277.97,309.06L105.62,136.71c-8.25-8.25-8.25-21.63,0-29.88l0.52-0.52c8.25-8.25,21.63-8.25,29.88,0
		l172.35,172.35c8.25,8.25,8.25,21.63,0,29.88l-0.52,0.52C299.6,317.31,286.22,317.31,277.97,309.06z"/>
</g>
<g>
	<path class="st0" d="M308.38,136.71L136.03,309.06c-8.25,8.25-21.63,8.25-29.88,0l-0.52-0.52c-8.25-8.25-8.25-21.63,0-29.88
		l172.35-172.35c8.25-8.25,21.63-8.25,29.88,0l0.52,0.52C316.63,115.08,316.63,128.46,308.38,136.71z"/>
</g>
</svg>
