<?xml version="1.0" encoding="utf-8"?>
<!-- Generator: Adobe Illustrator 26.5.0, SVG Export Plug-In . SVG Version: 6.00 Build 0)  -->
<svg version="1.1" id="Layer_1" xmlns="http://www.w3.org/2000/svg" xmlns:xlink="http://www.w3.org/1999/xlink" x="0px" y="0px"
	 viewBox="0 0 283.46 283.46" style="enable-background:new 0 0 283.46 283.46;" xml:space="preserve">
<style type="text/css">
	.st0{fill:#6658B4;}
	.st1{fill:#F8F3CC;}
	.st2{fill:#6658B4;stroke:#F8F3CC;stroke-width:0.8027;stroke-miterlimit:10;}
</style>
<g>
	<path class="st0" d="M55.16,212.5c-4.78,0-8.66-3.88-8.66-8.66V92.16c0-4.78,3.88-8.66,8.66-8.66h178.68
		c4.78,0,8.66,3.88,8.66,8.66v111.68c0,4.78-3.88,8.66-8.66,8.66H55.16z"/>
	<path class="st1" d="M233.84,84c4.5,0,8.16,3.66,8.16,8.16v111.68c0,4.5-3.66,8.16-8.16,8.16H55.16c-4.5,0-8.16-3.66-8.16-8.16
		V92.16c0-4.5,3.66-8.16,8.16-8.16H233.84 M233.84,83H55.16C50.1,83,46,87.1,46,92.16v111.68c0,5.06,4.1,9.16,9.16,9.16h178.68
		c5.06,0,9.16-4.1,9.16-9.16V92.16C243,87.1,238.9,83,233.84,83L233.84,83z"/>
</g>
<path class="st2" d="M47.92,88.18c-3.7-2.74-0.25-6.68,5.84-6.68l90.93,0h90.93c6.1,0,9.55,3.95,5.84,6.68l-43.86,32.41
	l-47.07,34.78c-2.94,2.18-8.74,2.18-11.69,0l-47.07-34.78L47.92,88.18z"/>
</svg>
